<svg xmlns="http://www.w3.org/2000/svg" width="30" viewBox="0 0 30 30" height="30" version="1.0"><defs><clipPath id="a"><path d="M 3.171875 2.691406 L 27.125 2.691406 L 27.125 26.640625 L 3.171875 26.640625 Z M 3.171875 2.691406"/></clipPath></defs><g clip-path="url(#a)"><path fill="#563D7C" d="M 3.171875 23.554688 C 3.171875 25.257812 4.554688 26.640625 6.261719 26.640625 L 24.035156 26.640625 C 25.742188 26.640625 27.125 25.257812 27.125 23.554688 L 27.125 5.777344 C 27.125 4.070312 25.742188 2.691406 24.035156 2.691406 L 6.261719 2.691406 C 4.554688 2.691406 3.171875 4.074219 3.171875 5.777344 Z M 3.171875 23.554688"/></g><path fill="#FFF" d="M 13.105469 13.285156 L 13.105469 9.890625 L 16.089844 9.890625 C 16.375 9.890625 16.648438 9.917969 16.914062 9.964844 C 17.175781 10.011719 17.410156 10.09375 17.613281 10.21875 C 17.816406 10.339844 17.980469 10.507812 18.101562 10.726562 C 18.222656 10.941406 18.285156 11.21875 18.285156 11.558594 C 18.285156 12.167969 18.101562 12.605469 17.734375 12.878906 C 17.371094 13.148438 16.902344 13.285156 16.335938 13.285156 Z M 9.917969 7.414062 L 9.917969 21.917969 L 16.945312 21.917969 C 17.59375 21.917969 18.226562 21.835938 18.84375 21.671875 C 19.460938 21.511719 20.007812 21.257812 20.488281 20.921875 C 20.96875 20.582031 21.351562 20.144531 21.636719 19.609375 C 21.921875 19.074219 22.0625 18.445312 22.0625 17.710938 C 22.0625 16.804688 21.84375 16.03125 21.402344 15.386719 C 20.960938 14.742188 20.296875 14.292969 19.402344 14.035156 C 20.050781 13.722656 20.542969 13.324219 20.875 12.835938 C 21.207031 12.351562 21.371094 11.742188 21.371094 11.007812 C 21.371094 10.332031 21.261719 9.765625 21.035156 9.304688 C 20.8125 8.84375 20.5 8.472656 20.09375 8.195312 C 19.6875 7.917969 19.199219 7.71875 18.628906 7.597656 C 18.0625 7.476562 17.433594 7.414062 16.742188 7.414062 Z M 13.105469 19.4375 L 13.105469 15.457031 L 16.578125 15.457031 C 17.269531 15.457031 17.824219 15.617188 18.246094 15.933594 C 18.664062 16.253906 18.875 16.785156 18.875 17.53125 C 18.875 17.910156 18.808594 18.21875 18.679688 18.464844 C 18.550781 18.707031 18.378906 18.898438 18.164062 19.042969 C 17.945312 19.183594 17.695312 19.285156 17.410156 19.347656 C 17.128906 19.40625 16.828125 19.4375 16.519531 19.4375 Z M 13.105469 19.4375"/></svg>