<svg xmlns="http://www.w3.org/2000/svg" width="187.5" viewBox="0 0 187.5 187.5" height="187.5" version="1.0"><defs><clipPath id="a"><path d="M 30.601562 37 L 156.601562 37 L 156.601562 179.933594 L 30.601562 179.933594 Z M 30.601562 37"/></clipPath><clipPath id="b"><path d="M 60 2.183594 L 80 2.183594 L 80 27 L 60 27 Z M 60 2.183594"/></clipPath><clipPath id="c"><path d="M 83 2.183594 L 103 2.183594 L 103 27 L 83 27 Z M 83 2.183594"/></clipPath><clipPath id="d"><path d="M 106 2.183594 L 126 2.183594 L 126 27 L 106 27 Z M 106 2.183594"/></clipPath></defs><g clip-path="url(#a)"><path fill="#264DE4" d="M 93.546875 179.929688 L 42.136719 165.652344 L 30.679688 37.117188 L 156.566406 37.113281 L 145.101562 165.632812 L 93.546875 179.925781 Z M 93.546875 179.929688"/></g><path fill="#2965F1" d="M 135.285156 157.449219 L 145.085938 47.625 L 93.625 47.625 L 93.625 169 Z M 135.285156 157.449219"/><path fill="#EBEBEB" d="M 56.945312 95.300781 L 58.355469 111.058594 L 93.625 111.058594 L 93.625 95.300781 Z M 56.945312 95.300781"/><path fill="#EBEBEB" d="M 54.105469 63.386719 L 55.539062 79.152344 L 93.625 79.152344 L 93.625 63.386719 Z M 54.105469 63.386719"/><path fill="#EBEBEB" d="M 93.625 136.238281 L 93.554688 136.257812 L 76.003906 131.515625 L 74.882812 118.941406 L 59.0625 118.941406 L 61.269531 143.699219 L 93.550781 152.660156 L 93.625 152.640625 Z M 93.625 136.238281"/><g clip-path="url(#b)"><path d="M 60.308594 2.183594 L 79.394531 2.183594 L 79.394531 10.167969 L 68.289062 10.167969 L 68.289062 18.152344 L 79.394531 18.152344 L 79.394531 26.136719 L 60.308594 26.136719 Z M 60.308594 2.183594"/></g><g clip-path="url(#c)"><path d="M 83.210938 2.183594 L 102.300781 2.183594 L 102.300781 9.128906 L 91.195312 9.128906 L 91.195312 10.515625 L 102.300781 10.515625 L 102.300781 26.484375 L 83.210938 26.484375 L 83.210938 19.195312 L 94.320312 19.195312 L 94.320312 17.804688 L 83.210938 17.804688 Z M 83.210938 2.183594"/></g><g clip-path="url(#d)"><path d="M 106.121094 2.183594 L 125.207031 2.183594 L 125.207031 9.128906 L 114.097656 9.128906 L 114.097656 10.515625 L 125.207031 10.515625 L 125.207031 26.484375 L 106.121094 26.484375 L 106.121094 19.195312 L 117.222656 19.195312 L 117.222656 17.804688 L 106.121094 17.804688 Z M 106.121094 2.183594"/></g><path fill="#FFF" d="M 130.207031 95.300781 L 133.046875 63.386719 L 93.570312 63.386719 L 93.570312 79.152344 L 115.777344 79.152344 L 114.347656 95.300781 L 93.570312 95.300781 L 93.570312 111.058594 L 112.980469 111.058594 L 111.148438 131.503906 L 93.570312 136.253906 L 93.570312 152.652344 L 125.878906 143.699219 L 126.113281 141.03125 L 129.820312 99.53125 Z M 130.207031 95.300781"/></svg>