<svg xmlns="http://www.w3.org/2000/svg" width="375" viewBox="0 0 375 375" height="375" version="1.0"><defs><clipPath id="a"><path d="M 48.457031 7.570312 L 326.453125 7.570312 L 326.453125 367.453125 L 48.457031 367.453125 Z M 48.457031 7.570312"/></clipPath></defs><g clip-path="url(#a)"><path fill="#004AAD" d="M 103.761719 271.828125 L 271.019531 271.828125 L 271.019531 361.03125 L 103.761719 361.03125 Z M 251.773438 226.203125 L 283.710938 230.484375 C 298.734375 232.464844 310.371094 244.507812 311.90625 259.558594 L 319.835938 338.25 C 320.984375 349.625 312.707031 359.785156 301.359375 360.933594 C 300.652344 361 299.949219 361.03125 299.28125 361.03125 L 277.414062 361.03125 L 277.414062 271.027344 C 277.414062 267.929688 274.921875 265.40625 271.820312 265.40625 L 251.773438 265.40625 Z M 122.976562 226.203125 L 122.976562 265.40625 L 102.964844 265.40625 C 99.863281 265.40625 97.335938 267.929688 97.335938 271.027344 L 97.335938 361.03125 L 75.503906 361.03125 C 64.089844 361.03125 54.820312 351.765625 54.820312 340.359375 C 54.820312 339.65625 54.851562 338.953125 54.914062 338.25 L 62.875 259.558594 C 64.410156 244.507812 76.078125 232.464844 91.070312 230.484375 Z M 146.121094 223.136719 C 146.375 224.125 146.726562 225.082031 147.144531 226.011719 C 152.289062 236.457031 160.953125 244.796875 171.597656 249.492188 C 181.667969 253.902344 193.113281 253.902344 203.183594 249.492188 C 213.828125 244.765625 222.492188 236.457031 227.605469 226.011719 C 228.085938 225.082031 228.4375 224.125 228.695312 223.136719 L 245.347656 225.339844 L 245.347656 265.40625 L 129.402344 265.40625 L 129.402344 225.339844 Z M 161.433594 200.324219 C 178.023438 207.253906 196.726562 207.253906 213.316406 200.324219 C 217.984375 205.050781 221.183594 211.058594 222.554688 217.542969 C 222.941406 219.460938 222.683594 221.441406 221.820312 223.167969 C 217.378906 232.273438 209.832031 239.523438 200.59375 243.613281 C 192.15625 247.320312 182.597656 247.320312 174.1875 243.613281 C 164.917969 239.523438 157.375 232.273438 152.898438 223.167969 C 152.066406 221.441406 151.8125 219.460938 152.226562 217.542969 C 153.570312 211.058594 156.796875 205.050781 161.464844 200.324219 Z M 126.875 114.570312 L 247.875 114.570312 L 247.875 138.628906 C 247.777344 172.046875 220.605469 199.042969 187.199219 198.949219 C 153.921875 198.851562 126.972656 171.886719 126.875 138.628906 Z M 172.71875 7.570312 C 169.363281 7.570312 166.644531 10.285156 166.644531 13.640625 L 166.644531 20.253906 C 135.476562 31.46875 112.96875 58.816406 107.917969 91.5 L 107.40625 91.5 C 104.59375 91.5 102.292969 93.800781 102.292969 96.644531 L 102.292969 109.457031 C 102.292969 112.269531 104.59375 114.570312 107.40625 114.570312 L 120.417969 114.570312 L 120.417969 138.628906 C 120.417969 163.132812 133.84375 185.691406 155.390625 197.382812 C 150.628906 202.75 147.367188 209.238281 145.929688 216.265625 C 145.929688 216.394531 145.929688 216.519531 145.929688 216.679688 L 90.273438 224.09375 C 72.339844 226.488281 58.367188 240.898438 56.546875 258.886719 L 48.585938 337.613281 C 47.082031 352.53125 57.953125 365.824219 72.851562 367.324219 C 73.777344 367.390625 74.671875 367.453125 75.597656 367.453125 L 299.34375 367.453125 C 314.304688 367.453125 326.453125 355.3125 326.453125 340.359375 C 326.453125 339.433594 326.421875 338.507812 326.324219 337.613281 L 318.363281 258.886719 C 316.542969 240.898438 302.605469 226.523438 284.671875 224.09375 L 229.015625 216.679688 C 229.015625 216.519531 229.015625 216.394531 229.015625 216.265625 C 227.574219 209.238281 224.28125 202.75 219.550781 197.382812 L 219.390625 197.382812 C 240.9375 185.691406 254.332031 163.132812 254.332031 138.628906 L 254.332031 114.570312 L 267.34375 114.570312 C 270.1875 114.570312 272.457031 112.269531 272.457031 109.457031 L 272.457031 96.644531 C 272.457031 93.800781 270.1875 91.5 267.34375 91.5 L 266.832031 91.5 C 261.78125 58.785156 239.277344 31.46875 208.105469 20.253906 L 208.105469 13.640625 C 208.105469 10.285156 205.390625 7.570312 202.03125 7.570312 L 172.71875 7.570312"/></g><path fill="#004AAD" d="M 169.042969 351.605469 L 203.886719 310.261719 C 204.300781 309.816406 204.269531 309.113281 203.824219 308.730469 C 203.632812 308.503906 203.34375 308.410156 203.085938 308.410156 L 190.238281 308.410156 L 204.847656 286.621094 C 205.199219 286.109375 205.070312 285.4375 204.558594 285.085938 C 204.367188 284.988281 204.175781 284.925781 203.917969 284.925781 L 188.351562 284.925781 C 187.933594 284.925781 187.582031 285.148438 187.390625 285.5 L 170.863281 317.132812 C 170.578125 317.675781 170.800781 318.3125 171.34375 318.601562 C 171.503906 318.695312 171.664062 318.730469 171.855469 318.730469 L 181.765625 318.730469 L 168.019531 350.902344 C 167.859375 351.222656 167.988281 351.605469 168.273438 351.734375 C 168.53125 351.859375 168.851562 351.796875 169.011719 351.605469 L 169.042969 351.605469"/></svg>