<svg xmlns="http://www.w3.org/2000/svg" width="1440" viewBox="0 0 1440 810" height="810" version="1.0"><path fill="#FFF" d="M-144 -81H1584V891H-144z"/><path fill="#FFF" d="M-144 -81H1584V891H-144z"/><path fill="#0F1626" d="M-144 -81H1584V891H-144z"/><path fill="#F6F6E9" d="M -27.726562 -517.398438 L -223.546875 -553.277344 L -347.226562 121.734375 L 90.972656 202.027344 L -27.726562 -517.398438"/><path fill="#F6F6E9" d="M 938.054688 823.558594 L 938.054688 1022.640625 L 1624.304688 1022.640625 L 1624.304688 577.140625 L 938.054688 823.558594"/><path fill="#F6F6E9" d="M 1281.742188 86.441406 L 1451.785156 189.976562 L 1808.675781 -396.167969 L 1428.164062 -627.855469 L 1281.742188 86.441406"/><path fill="#F6F6E9" d="M 1012.941406 55.917969 L 1087.1875 -128.800781 L 450.445312 -384.730469 L 284.300781 28.628906 L 1012.941406 55.917969"/><path fill="#F6F6E9" d="M -629.914062 570.996094 L -668.925781 766.214844 L 4.015625 900.699219 L 91.320312 463.839844 L -629.914062 570.996094"/></svg>