<svg xmlns="http://www.w3.org/2000/svg" width="375" viewBox="0 0 375 375" height="375" version="1.0"><defs><clipPath id="a"><path d="M 22.027344 40.679688 L 352.777344 40.679688 L 352.777344 334.679688 L 22.027344 334.679688 Z M 22.027344 40.679688"/></clipPath></defs><g clip-path="url(#a)"><path fill="#004AAD" d="M 83.101562 332.328125 C 70.722656 328.078125 69.351562 326.871094 66.707031 317.910156 C 64.226562 309.503906 64.230469 308.328125 66.71875 307.816406 C 68.140625 307.519531 82.863281 292.601562 111.636719 262.292969 C 135.175781 237.5 157.449219 214.128906 161.132812 210.355469 C 166.148438 205.21875 167.644531 203.179688 167.101562 202.222656 C 165.558594 199.507812 101.351562 131.925781 99.714844 131.296875 C 99.078125 131.054688 97.402344 132.082031 95.988281 133.585938 C 92.734375 137.046875 76.785156 158.359375 67.144531 172.132812 C 63.089844 177.925781 59.308594 182.621094 58.746094 182.570312 C 58.179688 182.519531 49.703125 176.070312 39.90625 168.246094 L 22.09375 154.015625 L 24.484375 151.90625 C 25.796875 150.75 30.617188 144.304688 35.191406 137.582031 C 48.515625 118.019531 63.15625 98.933594 70.453125 91.617188 C 80.320312 81.722656 135.738281 40.679688 139.226562 40.679688 C 140.125 40.679688 145.132812 46.480469 152.269531 55.789062 C 160.183594 66.113281 164.609375 71.179688 166.238281 71.78125 C 167.554688 72.265625 168.5 73.023438 168.34375 73.460938 C 168.183594 73.902344 159.539062 80.6875 149.132812 88.539062 C 138.722656 96.390625 127.480469 105.347656 124.152344 108.4375 C 115.414062 116.558594 115.007812 115.585938 135.84375 136.550781 C 156.757812 157.597656 208.890625 208.226562 260.582031 257.6875 L 305.226562 300.414062 C 309.050781 304.074219 311.871094 306.113281 313.113281 306.113281 C 314.964844 306.113281 315.027344 306.3125 314.46875 310.519531 C 313.539062 317.546875 310.632812 323.882812 307.316406 326.117188 C 304.199219 328.21875 298.195312 330.140625 292.089844 330.996094 L 288.269531 331.53125 L 238.328125 277.929688 C 210.859375 248.449219 188.125 224.433594 187.808594 224.5625 C 187.492188 224.691406 166.691406 248.117188 141.589844 276.621094 C 116.488281 305.121094 94.570312 329.835938 92.890625 331.542969 L 89.832031 334.640625 L 83.105469 332.332031 Z M 196.707031 192.949219 L 186.664062 183.429688 L 216.960938 151.585938 C 242.535156 124.710938 247.261719 119.363281 247.261719 117.300781 C 247.261719 115.191406 244.394531 112.183594 226.378906 95.371094 C 214.890625 84.65625 205.703125 75.550781 205.960938 75.136719 C 206.214844 74.722656 207.195312 74.382812 208.140625 74.382812 C 209.207031 74.382812 215.503906 68.988281 224.855469 60.058594 C 233.105469 52.179688 240.261719 45.734375 240.757812 45.734375 C 241.253906 45.734375 250.207031 54.074219 260.65625 64.269531 C 280.472656 83.609375 281.859375 84.570312 284.972656 81.125 C 285.808594 80.195312 287.097656 79.445312 287.835938 79.449219 C 288.574219 79.457031 291.824219 81.714844 295.058594 84.46875 C 298.808594 87.664062 301.835938 89.5625 303.425781 89.722656 L 305.914062 89.972656 L 303.109375 93.164062 C 301.566406 94.917969 300.175781 97.464844 300.019531 98.824219 C 299.765625 101 300.539062 101.992188 306.566406 107.21875 C 310.324219 110.476562 313.816406 113.148438 314.328125 113.152344 C 315.167969 113.160156 352.691406 185.65625 352.195312 186.3125 C 352.078125 186.46875 337.664062 178.941406 320.160156 169.585938 L 288.335938 152.578125 L 278.652344 142.972656 C 273.324219 137.691406 268.726562 133.367188 268.433594 133.367188 C 268.144531 133.367188 254.199219 148.914062 237.449219 167.917969 C 220.699219 186.917969 206.9375 202.464844 206.871094 202.464844 C 206.800781 202.464844 202.230469 198.179688 196.707031 192.949219 Z M 196.707031 192.949219"/></g></svg>