<svg xmlns="http://www.w3.org/2000/svg" width="187.5" viewBox="0 0 187.5 187.5" height="187.5" version="1.0"><defs><clipPath id="a"><path d="M 30.390625 39 L 157.140625 39 L 157.140625 182.894531 L 30.390625 182.894531 Z M 30.390625 39"/></clipPath><clipPath id="b"><path d="M 42 4.394531 L 66 4.394531 L 66 29 L 42 29 Z M 42 4.394531"/></clipPath><clipPath id="c"><path d="M 69 4.394531 L 92 4.394531 L 92 29 L 69 29 Z M 69 4.394531"/></clipPath><clipPath id="d"><path d="M 95 4.394531 L 123 4.394531 L 123 29 L 95 29 Z M 95 4.394531"/></clipPath><clipPath id="e"><path d="M 126 4.394531 L 146 4.394531 L 146 29 L 126 29 Z M 126 4.394531"/></clipPath></defs><g clip-path="url(#a)"><path fill="#E44D26" d="M 157.101562 39.472656 L 145.566406 168.53125 L 93.710938 182.886719 L 41.996094 168.550781 L 30.472656 39.472656 L 157.105469 39.472656 Z M 157.101562 39.472656"/></g><path fill="#F16529" d="M 93.789062 171.914062 L 135.695312 160.316406 L 145.550781 50.027344 L 93.789062 50.027344 Z M 93.789062 171.914062"/><path fill="#EBEBEB" d="M 71.363281 81.6875 L 93.789062 81.6875 L 93.789062 65.855469 L 54.035156 65.855469 L 54.414062 70.105469 L 58.3125 113.730469 L 93.789062 113.730469 L 93.789062 97.902344 L 72.8125 97.902344 Z M 71.363281 81.6875"/><path fill="#EBEBEB" d="M 74.933594 121.644531 L 59.019531 121.644531 L 61.242188 146.503906 L 93.714844 155.507812 L 93.789062 155.488281 L 93.789062 139.015625 L 93.71875 139.035156 L 76.0625 134.273438 Z M 74.933594 121.644531"/><g clip-path="url(#b)"><path d="M 42.253906 4.394531 L 50.3125 4.394531 L 50.3125 12.34375 L 57.679688 12.34375 L 57.679688 4.394531 L 65.738281 4.394531 L 65.738281 28.464844 L 57.679688 28.464844 L 57.679688 20.40625 L 50.3125 20.40625 L 50.3125 28.464844 L 42.253906 28.464844 Z M 42.253906 4.394531"/></g><g clip-path="url(#c)"><path d="M 76.332031 12.375 L 69.238281 12.375 L 69.238281 4.394531 L 91.484375 4.394531 L 91.484375 12.375 L 84.386719 12.375 L 84.386719 28.464844 L 76.332031 28.464844 Z M 76.332031 12.375"/></g><g clip-path="url(#d)"><path d="M 95.015625 4.394531 L 103.414062 4.394531 L 108.582031 12.851562 L 113.742188 4.394531 L 122.148438 4.394531 L 122.148438 28.464844 L 114.125 28.464844 L 114.125 16.535156 L 108.582031 25.09375 L 108.441406 25.09375 L 102.898438 16.535156 L 102.898438 28.464844 L 95.015625 28.464844 Z M 95.015625 4.394531"/></g><g clip-path="url(#e)"><path d="M 126.15625 4.394531 L 134.214844 4.394531 L 134.214844 20.507812 L 145.546875 20.507812 L 145.546875 28.464844 L 126.15625 28.464844 Z M 126.15625 4.394531"/></g><path fill="#FFF" d="M 93.734375 113.730469 L 113.257812 113.730469 L 111.414062 134.261719 L 93.734375 139.03125 L 93.734375 155.496094 L 126.234375 146.503906 L 126.472656 143.828125 L 130.199219 102.152344 L 130.585938 97.902344 L 93.734375 97.902344 Z M 93.734375 113.730469"/><path fill="#FFF" d="M 93.734375 81.648438 L 93.734375 81.6875 L 132.027344 81.6875 L 132.34375 78.128906 L 133.066406 70.105469 L 133.445312 65.855469 L 93.734375 65.855469 Z M 93.734375 81.648438"/></svg>