<svg xmlns="http://www.w3.org/2000/svg" width="187.5" viewBox="0 0 187.5 187.5" height="187.5" version="1.0"><defs><clipPath id="a"><path d="M 14.941406 14.941406 L 172.441406 14.941406 L 172.441406 172.441406 L 14.941406 172.441406 Z M 14.941406 14.941406"/></clipPath></defs><g clip-path="url(#a)"><path fill="#FFD600" d="M 14.941406 14.941406 L 172.441406 14.941406 L 172.441406 172.441406 L 14.941406 172.441406 Z M 14.941406 14.941406"/></g><path fill="#000001" d="M 117.917969 132.832031 C 120.945312 137.75 124.238281 142.464844 131.207031 142.464844 C 137.058594 142.464844 140.132812 139.554688 140.132812 135.527344 C 140.132812 130.710938 136.953125 129 130.515625 126.195312 L 126.984375 124.691406 C 116.792969 120.371094 110.019531 114.953125 110.019531 103.511719 C 110.019531 92.96875 118.089844 84.945312 130.703125 84.945312 C 139.683594 84.945312 146.136719 88.054688 150.792969 96.203125 L 139.792969 103.230469 C 137.375 98.910156 134.757812 97.207031 130.703125 97.207031 C 126.5625 97.207031 123.945312 99.820312 123.945312 103.230469 C 123.945312 107.449219 126.570312 109.15625 132.628906 111.769531 L 136.160156 113.273438 C 148.167969 118.386719 154.941406 123.609375 154.941406 135.355469 C 154.941406 148.007812 144.949219 154.941406 131.535156 154.941406 C 118.414062 154.941406 110.964844 148.355469 106.816406 140.207031 Z M 67.230469 133.191406 C 69.445312 137.15625 72.808594 140.207031 77.648438 140.207031 C 82.277344 140.207031 84.941406 138.375 84.941406 131.265625 L 84.941406 84.941406 L 99.523438 84.941406 L 99.523438 133.507812 C 99.523438 148.238281 90.976562 154.941406 78.5 154.941406 C 67.226562 154.941406 59.089844 147.300781 55.773438 140.207031 Z M 67.230469 133.191406"/></svg>