<svg xmlns="http://www.w3.org/2000/svg" width="375" viewBox="0 0 375 375" height="375" version="1.0"><defs><clipPath id="a"><path d="M 20.382812 20.382812 L 354.882812 20.382812 L 354.882812 354.882812 L 20.382812 354.882812 Z M 20.382812 20.382812"/></clipPath></defs><g clip-path="url(#a)"><path d="M 354.875 354.878906 L 354.875 319.78125 C 354.875 302.734375 343.851562 288.261719 328.550781 283.136719 C 327.34375 282.726562 249.023438 262.722656 237.8125 240.46875 C 232.699219 230.300781 237.742188 217.273438 242.847656 208.292969 C 245.183594 205.148438 247.46875 201.820312 249.664062 198.328125 C 249.664062 198.308594 249.664062 198.308594 249.664062 198.308594 C 262.9375 177.078125 273.0625 149.148438 274.09375 114.625 C 275.644531 62.691406 235.457031 20.511719 187.746094 20.390625 C 187.707031 20.390625 187.675781 20.390625 187.636719 20.390625 C 187.601562 20.390625 187.5625 20.390625 187.523438 20.390625 C 139.820312 20.511719 99.632812 62.691406 101.195312 114.628906 C 102.226562 149.148438 112.34375 177.078125 125.613281 198.308594 C 125.613281 198.308594 125.625 198.308594 125.625 198.332031 C 127.808594 201.820312 130.09375 205.148438 132.433594 208.292969 C 137.535156 217.277344 142.578125 230.300781 137.464844 240.46875 C 126.265625 262.722656 47.933594 282.730469 46.726562 283.136719 C 31.425781 288.261719 20.390625 302.734375 20.390625 319.785156 L 20.390625 354.878906 Z M 354.875 354.878906"/></g></svg>