<svg xmlns="http://www.w3.org/2000/svg" width="375" viewBox="0 0 375 375" height="375" version="1.0"><defs><clipPath id="a"><path d="M 0 68 L 357.773438 68 L 357.773438 357.570312 L 0 357.570312 Z M 0 68"/></clipPath><clipPath id="b"><path d="M 80 22.058594 L 375 22.058594 L 375 328.78125 L 80 328.78125 Z M 80 22.058594"/></clipPath></defs><path fill="#FFF" d="M 343.292969 263.152344 C 328.21875 216.113281 308.574219 178.960938 297.820312 160.402344 C 292.972656 152.046875 285.035156 145.9375 275.703125 143.394531 C 262.097656 139.683594 241.652344 134.585938 227.625 133.222656 L 222.804688 113.34375 L 222.574219 92.707031 C 222.574219 92.707031 233.515625 89.296875 230.554688 79.734375 C 227.589844 70.175781 218.019531 74.730469 218.019531 74.730469 L 221.132812 64.367188 C 223.609375 56.125 219.535156 47.355469 211.652344 43.859375 C 200.164062 38.761719 182.992188 35.84375 167.648438 51.972656 C 167.648438 51.972656 153.972656 88.839844 162.175781 107.5 C 170.382812 126.164062 177.675781 124.570312 177.675781 124.570312 L 176.484375 132.953125 C 176.484375 132.953125 142.457031 135.179688 123.011719 148.769531 C 98.703125 165.765625 48.523438 308.988281 48.523438 308.988281 L 244.28125 325.613281 C 244.28125 325.613281 270.140625 355.980469 302.960938 354.769531 C 335.777344 353.558594 365.175781 331.417969 343.292969 263.152344 Z M 50.558594 259.28125 C 50.308594 261.710938 46.539062 270.914062 45.699219 271.5 C 44.863281 272.085938 33.628906 275.015625 32.121094 275.519531 C 30.613281 276.019531 11.335938 279.429688 11.335938 279.429688 C 11.199219 279.507812 11.070312 279.59375 10.933594 279.652344 C 9.25 280.402344 4.269531 280.089844 -0.511719 279.550781 C -6.613281 278.859375 -11.308594 273.816406 -11.527344 267.683594 C -11.828125 259.234375 -11.722656 248.550781 -9.34375 247.601562 C -8.011719 247.066406 -5.835938 246.117188 -3.453125 245.089844 L 2.621094 240.203125 C 2.621094 240.203125 14.6875 237.355469 14.941406 237.355469 C 15.191406 237.355469 31.703125 241.539062 33.546875 242.796875 C 35.390625 244.050781 44.191406 247.902344 44.777344 248.738281 C 45.363281 249.574219 50.8125 256.855469 50.558594 259.28125"/><g clip-path="url(#a)"><path fill="#2F2D27" d="M 99.597656 223.796875 C 99.289062 222.847656 99.433594 222.074219 99.695312 221.34375 L 100.433594 219.144531 C 100.925781 217.679688 101.402344 216.207031 101.9375 214.757812 C 102.964844 211.839844 104.0625 208.949219 105.140625 206.054688 C 107.296875 200.265625 109.453125 194.472656 111.785156 188.753906 C 114.109375 183.027344 116.578125 177.355469 118.992188 171.664062 L 122.511719 163.09375 C 123.105469 161.664062 123.703125 160.238281 124.339844 158.832031 L 125.300781 156.71875 C 125.625 156.015625 126.042969 155.351562 126.851562 154.839844 C 127.089844 155.765625 126.941406 156.535156 126.695312 157.269531 L 125.957031 159.46875 C 125.453125 160.929688 124.914062 162.378906 124.375 163.824219 L 121.082031 172.488281 C 118.953125 178.292969 116.878906 184.117188 114.664062 189.882812 C 112.453125 195.652344 110.0625 201.355469 107.679688 207.054688 C 106.488281 209.910156 105.316406 212.765625 104.066406 215.597656 C 103.464844 217.023438 102.8125 218.421875 102.167969 219.832031 L 101.203125 221.9375 C 100.894531 222.648438 100.476562 223.3125 99.597656 223.796875 Z M 182.984375 173.179688 C 200.675781 173.183594 229.640625 143.160156 229.941406 142.847656 C 230.53125 142.226562 231.515625 142.203125 232.132812 142.796875 C 232.753906 143.386719 232.773438 144.367188 232.183594 144.984375 C 230.917969 146.308594 201.992188 176.269531 182.90625 176.273438 C 182.21875 176.273438 181.542969 176.234375 180.878906 176.152344 C 176.671875 175.636719 173.480469 173.707031 171.394531 170.414062 C 165.089844 160.445312 171.375 141.277344 171.644531 140.464844 C 171.917969 139.65625 172.792969 139.214844 173.605469 139.488281 C 174.417969 139.757812 174.859375 140.632812 174.589844 141.445312 C 174.527344 141.628906 168.492188 160.03125 174.019531 168.761719 C 175.605469 171.265625 177.972656 172.679688 181.257812 173.078125 C 181.816406 173.148438 182.394531 173.179688 182.984375 173.179688 Z M 348.695312 331.199219 C 332.414062 352.71875 313.207031 357.585938 299.171875 357.585938 C 298.339844 357.585938 297.523438 357.570312 296.730469 357.539062 C 295.875 357.503906 295.210938 356.785156 295.242188 355.929688 C 295.277344 355.074219 295.988281 354.425781 296.855469 354.445312 C 310.304688 354.988281 329.785156 351.0625 346.21875 329.335938 C 379.113281 285.847656 297.359375 162.503906 296.53125 161.265625 C 296.054688 160.554688 296.246094 159.589844 296.960938 159.117188 C 297.671875 158.644531 298.632812 158.835938 299.109375 159.542969 C 299.320312 159.855469 320.265625 191.320312 336.78125 227.871094 C 359.128906 277.335938 363.140625 312.101562 348.695312 331.199219 Z M 264.574219 246.398438 C 264.488281 243.9375 262.488281 185.910156 268.683594 174.007812 C 274.980469 161.902344 283.574219 159.046875 283.9375 158.929688 C 284.75 158.664062 285.628906 159.117188 285.886719 159.933594 C 286.148438 160.746094 285.699219 161.613281 284.886719 161.878906 C 284.746094 161.925781 277.082031 164.585938 271.433594 175.4375 C 265.613281 186.621094 267.652344 245.695312 267.671875 246.292969 C 267.703125 247.144531 267.035156 247.863281 266.179688 247.890625 C 266.160156 247.894531 266.140625 247.894531 266.121094 247.894531 C 265.292969 247.894531 264.605469 247.238281 264.574219 246.398438 Z M 157.070312 70.410156 L 172.632812 73.527344 C 172.554688 74.1875 172.410156 75.152344 172.15625 76.257812 C 172.019531 76.460938 171.964844 76.699219 171.992188 76.925781 C 171.359375 79.359375 170.203125 82.222656 168.109375 83.808594 C 166.605469 84.949219 164.832031 85.277344 162.6875 84.820312 C 160.441406 84.339844 158.847656 83.253906 157.808594 81.5 C 155.671875 77.894531 156.585938 72.53125 157.070312 70.410156 Z M 183.203125 75.4375 L 198.769531 78.558594 C 198.691406 79.1875 198.554688 80.117188 198.316406 81.171875 C 198.300781 81.222656 198.292969 81.273438 198.28125 81.324219 C 197.695312 83.867188 196.527344 87.101562 194.246094 88.835938 C 192.742188 89.980469 190.96875 90.3125 188.820312 89.851562 C 186.574219 89.367188 184.976562 88.28125 183.941406 86.523438 C 181.808594 82.925781 182.71875 77.558594 183.203125 75.4375 Z M 162.25 86.839844 C 164.988281 87.425781 167.378906 86.960938 169.363281 85.453125 C 171.96875 83.472656 173.332031 80.066406 174.042969 77.277344 C 174.664062 76.804688 176.640625 75.90625 180.574219 79.003906 C 180.386719 81.679688 180.605469 84.945312 182.15625 87.570312 C 183.488281 89.820312 185.582031 91.265625 188.386719 91.867188 C 189.152344 92.03125 189.882812 92.113281 190.59375 92.113281 C 192.425781 92.113281 194.070312 91.566406 195.5 90.476562 C 198.117188 88.488281 199.480469 85.050781 200.1875 82.253906 L 219.695312 75.207031 C 220.230469 75.011719 220.507812 74.417969 220.316406 73.882812 C 220.121094 73.347656 219.527344 73.066406 218.992188 73.261719 L 200.675781 79.882812 C 200.863281 78.699219 200.914062 77.890625 200.921875 77.785156 C 200.949219 77.273438 200.597656 76.816406 200.09375 76.714844 L 182.644531 73.222656 C 182.121094 73.117188 181.609375 73.425781 181.453125 73.9375 C 181.417969 74.050781 181.105469 75.101562 180.855469 76.644531 C 178.746094 75.199219 176.804688 74.5625 175.078125 74.75 C 174.890625 74.773438 174.710938 74.800781 174.542969 74.839844 C 174.730469 73.664062 174.78125 72.863281 174.789062 72.757812 C 174.816406 72.242188 174.464844 71.789062 173.957031 71.6875 L 156.515625 68.195312 C 155.988281 68.09375 155.472656 68.398438 155.320312 68.90625 C 155.21875 69.242188 152.871094 77.207031 156.023438 82.539062 C 157.351562 84.792969 159.449219 86.238281 162.25 86.839844 Z M 112.636719 310.542969 C 100.636719 311.867188 88.996094 304.828125 86.632812 294.820312 C 84.273438 284.808594 92.09375 275.625 104.09375 274.296875 C 116.097656 272.976562 127.738281 280.015625 130.097656 290.023438 C 132.457031 300.035156 124.640625 309.21875 112.636719 310.542969 Z M 237.300781 324.683594 L 197.683594 232.683594 C 195.359375 227.289062 190.050781 223.796875 184.171875 223.796875 L 1.148438 223.796875 C -5.035156 223.796875 -9.199219 230.113281 -6.757812 235.78125 L -5.875 237.832031 C -5.917969 238.757812 -5.765625 239.714844 -5.363281 240.652344 L -3.453125 245.089844 C -3.195312 244.976562 -2.933594 244.867188 -2.667969 244.75 C -2.578125 244.714844 -2.492188 244.675781 -2.40625 244.640625 C -2.195312 244.550781 -1.988281 244.460938 -1.777344 244.371094 C -1.675781 244.324219 -1.570312 244.285156 -1.46875 244.238281 C -1.285156 244.164062 -1.097656 244.082031 -0.917969 244.003906 C -0.789062 243.949219 -0.660156 243.898438 -0.53125 243.84375 C -0.363281 243.769531 -0.191406 243.699219 -0.0234375 243.628906 C 0.105469 243.574219 0.234375 243.523438 0.359375 243.46875 C 0.53125 243.398438 0.699219 243.328125 0.867188 243.257812 C 0.996094 243.207031 1.125 243.152344 1.253906 243.097656 C 1.417969 243.03125 1.578125 242.96875 1.738281 242.90625 C 1.867188 242.851562 1.996094 242.800781 2.125 242.746094 C 2.28125 242.683594 2.433594 242.625 2.585938 242.5625 C 2.71875 242.507812 2.847656 242.457031 2.972656 242.40625 C 3.121094 242.347656 3.265625 242.292969 3.410156 242.238281 C 3.539062 242.1875 3.664062 242.136719 3.789062 242.089844 C 3.929688 242.035156 4.070312 241.984375 4.210938 241.933594 C 4.328125 241.886719 4.449219 241.84375 4.566406 241.800781 C 4.703125 241.746094 4.832031 241.699219 4.96875 241.652344 C 5.078125 241.613281 5.191406 241.570312 5.300781 241.535156 C 5.425781 241.488281 5.546875 241.449219 5.667969 241.40625 C 5.777344 241.371094 5.882812 241.332031 5.984375 241.296875 C 6.105469 241.257812 6.214844 241.222656 6.328125 241.1875 C 6.425781 241.15625 6.523438 241.125 6.613281 241.097656 C 6.722656 241.0625 6.824219 241.035156 6.925781 241.007812 C 7.007812 240.984375 7.097656 240.957031 7.179688 240.9375 C 7.277344 240.90625 7.371094 240.886719 7.464844 240.867188 C 7.535156 240.851562 7.609375 240.832031 7.671875 240.816406 C 7.769531 240.796875 7.855469 240.78125 7.945312 240.765625 C 7.992188 240.757812 8.046875 240.746094 8.089844 240.742188 C 8.21875 240.726562 8.332031 240.710938 8.425781 240.710938 C 10.8125 240.710938 31.242188 247.867188 31.773438 249.984375 C 32.304688 252.105469 30.710938 255.015625 30.710938 255.015625 C 30.710938 255.015625 34.957031 255.546875 35.75 258.726562 C 36.546875 261.90625 29.117188 263.492188 29.117188 263.492188 C 29.117188 263.492188 29.914062 268.789062 27.261719 269.320312 C 24.609375 269.851562 17.445312 270.382812 17.445312 270.382812 C 17.445312 270.382812 17.4375 270.410156 17.417969 270.457031 C 17.410156 270.46875 17.40625 270.488281 17.398438 270.503906 C 17.378906 270.546875 17.359375 270.601562 17.332031 270.667969 C 17.316406 270.707031 17.292969 270.761719 17.273438 270.804688 C 17.25 270.871094 17.222656 270.933594 17.1875 271.011719 C 17.164062 271.066406 17.132812 271.136719 17.105469 271.203125 C 17.070312 271.285156 17.039062 271.367188 16.996094 271.453125 C 16.960938 271.535156 16.921875 271.621094 16.882812 271.703125 C 16.84375 271.800781 16.796875 271.894531 16.753906 271.996094 C 16.710938 272.085938 16.664062 272.183594 16.617188 272.28125 C 16.566406 272.386719 16.515625 272.496094 16.460938 272.609375 C 16.410156 272.714844 16.355469 272.824219 16.300781 272.929688 C 16.246094 273.046875 16.1875 273.160156 16.128906 273.277344 C 16.070312 273.394531 16.011719 273.511719 15.949219 273.628906 C 15.886719 273.753906 15.816406 273.875 15.753906 274 C 15.6875 274.117188 15.621094 274.234375 15.554688 274.355469 C 15.484375 274.484375 15.410156 274.613281 15.339844 274.742188 C 15.269531 274.859375 15.199219 274.980469 15.125 275.101562 C 15.046875 275.230469 14.96875 275.363281 14.886719 275.492188 C 14.8125 275.613281 14.738281 275.730469 14.660156 275.847656 C 14.578125 275.980469 14.488281 276.109375 14.402344 276.242188 C 14.324219 276.355469 14.242188 276.46875 14.167969 276.578125 C 14.074219 276.710938 13.976562 276.839844 13.882812 276.964844 C 13.800781 277.070312 13.726562 277.175781 13.640625 277.28125 C 13.539062 277.410156 13.433594 277.53125 13.332031 277.65625 C 13.25 277.75 13.175781 277.839844 13.09375 277.929688 C 12.984375 278.054688 12.863281 278.175781 12.75 278.292969 C 12.671875 278.367188 12.597656 278.449219 12.523438 278.519531 C 12.394531 278.640625 12.261719 278.75 12.132812 278.859375 C 12.066406 278.910156 11.996094 278.972656 11.929688 279.027344 C 11.734375 279.175781 11.535156 279.316406 11.335938 279.429688 L 39.21875 344.179688 C 41.539062 349.574219 46.851562 353.066406 52.730469 353.066406 L 286.488281 353.066406 C 291.09375 353.066406 294.828125 349.339844 294.828125 344.738281 L 294.828125 338.046875 L 236.398438 338.046875 C 238.707031 334.207031 239.300781 329.320312 237.300781 324.683594"/></g><path fill="#D17609" d="M 165.308594 83.605469 C 167.074219 83.605469 168.5 82.179688 168.5 80.417969 C 168.5 78.660156 167.074219 77.230469 165.308594 77.230469 C 163.546875 77.230469 162.121094 78.660156 162.121094 80.417969 C 162.121094 82.179688 163.546875 83.605469 165.308594 83.605469 Z M 190.921875 86.789062 C 192.683594 86.789062 194.113281 85.367188 194.113281 83.605469 C 194.113281 81.84375 192.683594 80.417969 190.921875 80.417969 C 189.160156 80.417969 187.730469 81.84375 187.730469 83.605469 C 187.730469 85.367188 189.160156 86.789062 190.921875 86.789062 Z M 16.425781 269.507812 L 15.824219 269.253906 C 15.421875 269.097656 15.011719 268.957031 14.597656 268.847656 C 13.765625 268.628906 12.921875 268.460938 12.085938 268.226562 C 11.253906 267.984375 10.417969 267.75 9.539062 267.550781 C 9.089844 267.453125 8.667969 267.359375 8.105469 267.3125 C 7.597656 267.28125 7.167969 267.285156 6.726562 267.28125 C 4.984375 267.277344 3.296875 267.574219 1.597656 267.8125 C 0.75 267.941406 -0.0976562 268.042969 -0.9375 268.226562 C -1.359375 268.3125 -1.78125 268.417969 -2.199219 268.535156 L -2.828125 268.722656 C -3.039062 268.769531 -3.238281 268.925781 -3.394531 269.582031 C -3.128906 270.203125 -2.90625 270.324219 -2.691406 270.335938 L -2.046875 270.417969 C -1.613281 270.460938 -1.183594 270.503906 -0.753906 270.519531 C 0.105469 270.5625 0.957031 270.53125 1.808594 270.53125 C 3.507812 270.511719 5.222656 270.554688 6.882812 270.367188 C 7.296875 270.324219 7.71875 270.277344 8.0625 270.261719 C 8.355469 270.234375 8.78125 270.242188 9.175781 270.261719 C 9.988281 270.289062 10.828125 270.355469 11.671875 270.429688 C 12.511719 270.507812 13.339844 270.683594 14.179688 270.816406 C 14.597656 270.882812 15.019531 270.921875 15.449219 270.949219 L 16.097656 270.96875 C 16.3125 270.976562 16.550781 270.882812 16.886719 270.382812 C 16.804688 269.785156 16.625 269.597656 16.425781 269.507812 Z M 27.8125 262.453125 L 26.871094 262.011719 C 26.234375 261.730469 25.597656 261.464844 24.945312 261.222656 L 21.039062 259.820312 C 18.453125 258.824219 15.882812 257.78125 13.203125 256.945312 C 12.527344 256.746094 11.863281 256.539062 11.132812 256.371094 C 10.800781 256.285156 10.351562 256.203125 9.921875 256.152344 C 9.679688 256.136719 9.441406 256.136719 9.203125 256.136719 L 8.609375 256.191406 C 7.070312 256.375 5.734375 256.726562 4.355469 257.066406 C 2.996094 257.421875 1.648438 257.78125 0.324219 258.226562 C -0.335938 258.449219 -0.988281 258.695312 -1.640625 258.949219 L -2.613281 259.347656 C -2.9375 259.46875 -3.234375 259.699219 -3.394531 260.40625 C -2.890625 260.925781 -2.527344 260.976562 -2.1875 260.910156 L -1.15625 260.777344 L 0.890625 260.460938 L 4.925781 259.734375 C 6.253906 259.507812 7.628906 259.304688 8.847656 259.253906 L 9.28125 259.238281 C 9.390625 259.25 9.496094 259.261719 9.601562 259.257812 C 9.851562 259.300781 10.085938 259.339844 10.421875 259.429688 L 12.351562 259.917969 L 20.34375 261.953125 C 21.671875 262.320312 22.992188 262.734375 24.3125 263.132812 C 24.972656 263.328125 25.644531 263.5 26.316406 263.660156 L 27.335938 263.875 C 27.675781 263.945312 28.050781 263.917969 28.558594 263.492188 C 28.410156 262.851562 28.128906 262.605469 27.8125 262.453125 Z M 13.222656 246.746094 C 13.222656 246.753906 13.21875 246.753906 13.21875 246.753906 C 13.21875 246.765625 13.230469 246.769531 13.234375 246.765625 C 13.234375 246.765625 13.242188 246.757812 13.246094 246.75 L 13.242188 246.746094 Z M 29.863281 253.496094 L 29.066406 252.871094 C 28.527344 252.46875 27.980469 252.078125 27.414062 251.714844 L 24.007812 249.5625 C 21.765625 248.078125 19.550781 246.550781 17.167969 245.222656 C 16.574219 244.894531 15.964844 244.570312 15.339844 244.265625 L 14.855469 244.046875 L 14.613281 243.933594 L 14.492188 243.878906 C 14.4375 243.855469 14.335938 243.828125 14.261719 243.804688 C 14.09375 243.757812 13.925781 243.71875 13.753906 243.691406 L 13.5 243.648438 L 13.316406 243.652344 L 12.613281 243.679688 C 10.980469 243.921875 9.726562 244.429688 8.417969 244.917969 C 7.132812 245.429688 5.882812 245.960938 4.671875 246.589844 C 4.066406 246.894531 3.476562 247.234375 2.886719 247.578125 L 2.019531 248.113281 C 1.726562 248.277344 1.472656 248.550781 1.441406 249.269531 C 2.019531 249.707031 2.375 249.695312 2.691406 249.589844 L 3.652344 249.304688 L 5.558594 248.710938 C 6.824219 248.308594 8.0625 247.855469 9.308594 247.496094 C 10.53125 247.132812 11.84375 246.804688 12.878906 246.738281 C 12.980469 246.746094 13.074219 246.75 13.175781 246.75 L 13.222656 246.746094 C 13.222656 246.746094 13.214844 246.738281 13.230469 246.742188 L 13.242188 246.746094 L 13.246094 246.746094 C 13.246094 246.746094 13.246094 246.746094 13.246094 246.75 L 13.335938 246.792969 L 13.550781 246.894531 L 13.976562 247.097656 L 15.726562 247.957031 L 22.875 251.496094 C 24.054688 252.121094 25.214844 252.785156 26.378906 253.4375 C 26.960938 253.765625 27.558594 254.066406 28.164062 254.355469 L 29.082031 254.769531 C 29.390625 254.910156 29.75 254.960938 30.328125 254.660156 C 30.339844 254 30.128906 253.703125 29.863281 253.496094 Z M 246.265625 303.019531 L 246.277344 302.046875 C 246.289062 301.722656 246.191406 301.390625 245.699219 300.964844 C 245.085938 301.1875 244.890625 301.5 244.796875 301.824219 L 244.539062 302.796875 C 244.402344 303.453125 244.261719 304.109375 244.191406 304.773438 C 244.101562 305.4375 244.046875 306.101562 244.003906 306.769531 C 243.9375 307.433594 243.886719 308.101562 243.859375 308.769531 C 243.667969 311.441406 243.558594 314.160156 243.933594 316.867188 C 244.269531 319.578125 245.105469 322.238281 246.300781 324.742188 C 246.980469 325.957031 247.574219 327.21875 248.515625 328.273438 C 248.960938 328.808594 249.367188 329.371094 249.925781 329.804688 L 250.726562 330.476562 C 250.976562 330.710938 251.316406 330.867188 251.976562 330.644531 C 252.195312 329.9375 252.089844 329.613281 251.898438 329.359375 L 251.367188 328.585938 C 250.976562 328.101562 250.738281 327.503906 250.421875 326.976562 C 249.761719 325.9375 249.308594 324.769531 248.804688 323.652344 C 247.929688 321.324219 247.488281 318.863281 246.988281 316.402344 C 246.535156 313.925781 246.222656 311.382812 246.105469 308.8125 C 246.058594 307.527344 246.113281 306.238281 246.199219 304.953125 C 246.222656 304.3125 246.257812 303.671875 246.265625 303.019531 Z M 94.636719 103.648438 C 96.078125 104.40625 97.671875 104.613281 99.097656 104.65625 C 100.53125 104.699219 101.882812 104.59375 103.054688 104.679688 C 104.261719 104.757812 104.992188 105.089844 105.453125 105.71875 C 105.929688 106.367188 106.210938 107.597656 106.324219 108.703125 C 106.421875 109.832031 106.273438 110.945312 105.957031 112.164062 C 105.808594 112.785156 105.625 113.429688 105.464844 114.167969 C 105.324219 114.914062 105.195312 115.800781 105.402344 116.792969 C 105.625 117.804688 106.246094 118.601562 106.859375 119.210938 C 107.179688 119.464844 107.480469 119.742188 107.835938 119.964844 C 108.210938 120.167969 108.546875 120.425781 108.96875 120.558594 C 110.609375 121.230469 112.402344 121.023438 113.742188 120.617188 C 115.128906 120.230469 116.339844 119.75 117.507812 119.535156 C 118.664062 119.347656 119.726562 119.476562 120.699219 120.023438 C 121.679688 120.566406 122.410156 121.410156 122.851562 122.457031 C 123.296875 123.503906 123.4375 124.734375 123.417969 125.984375 C 123.410156 126.609375 123.363281 127.242188 123.273438 127.878906 C 123.175781 128.515625 123.164062 129.148438 123.472656 129.964844 C 124.234375 129.515625 124.554688 128.851562 124.738281 128.179688 C 124.921875 127.503906 125.066406 126.8125 125.152344 126.101562 C 125.328125 124.6875 125.253906 123.183594 124.71875 121.730469 C 124.210938 120.269531 123.101562 118.980469 121.746094 118.199219 C 120.410156 117.371094 118.675781 117.105469 117.1875 117.316406 C 115.695312 117.503906 114.371094 117.949219 113.15625 118.199219 C 111.925781 118.480469 110.894531 118.453125 110.050781 118.046875 C 109.621094 117.847656 109.226562 117.527344 108.84375 117.167969 C 108.542969 116.808594 108.335938 116.496094 108.292969 116.175781 C 108.242188 115.84375 108.289062 115.378906 108.417969 114.820312 C 108.5625 114.253906 108.761719 113.617188 108.949219 112.9375 C 109.332031 111.578125 109.5625 110 109.429688 108.457031 C 109.378906 107.679688 109.226562 106.9375 109.027344 106.175781 C 108.898438 105.789062 108.753906 105.40625 108.597656 105.019531 C 108.371094 104.632812 108.171875 104.246094 107.898438 103.878906 C 107.566406 103.542969 107.296875 103.144531 106.878906 102.898438 L 106.277344 102.5 C 106.070312 102.402344 105.855469 102.316406 105.640625 102.230469 C 104.785156 101.894531 103.964844 101.824219 103.203125 101.785156 C 101.695312 101.75 100.371094 101.921875 99.125 101.929688 C 97.882812 101.949219 96.738281 101.820312 95.777344 101.367188 C 94.855469 100.929688 94.171875 100.25 93.824219 99.1875 C 93.484375 98.140625 93.378906 96.898438 93.453125 95.648438 C 93.488281 95.015625 93.578125 94.386719 93.6875 93.753906 C 93.820312 93.121094 93.859375 92.484375 93.488281 91.636719 C 92.65625 92.050781 92.308594 92.699219 92.113281 93.363281 C 91.914062 94.03125 91.730469 94.710938 91.605469 95.410156 C 91.355469 96.808594 91.226562 98.296875 91.625 99.835938 C 91.964844 101.371094 93.136719 102.929688 94.636719 103.648438 Z M 372.597656 164.167969 C 372 163.800781 371.378906 163.457031 370.722656 163.171875 C 369.421875 162.597656 367.953125 162.238281 366.40625 162.332031 C 364.859375 162.398438 363.300781 163.089844 362.164062 164.160156 C 360.984375 165.199219 360.226562 166.785156 360.007812 168.265625 C 359.757812 169.746094 359.800781 171.136719 359.695312 172.375 C 359.613281 173.628906 359.289062 174.609375 358.65625 175.300781 C 358.339844 175.652344 357.921875 175.941406 357.464844 176.203125 C 357.035156 176.382812 356.675781 176.492188 356.355469 176.445312 C 356.023438 176.398438 355.589844 176.21875 355.09375 175.933594 C 354.589844 175.632812 354.035156 175.261719 353.4375 174.882812 C 352.246094 174.132812 350.796875 173.457031 349.28125 173.136719 C 348.515625 172.960938 347.761719 172.894531 346.976562 172.867188 C 346.566406 172.878906 346.15625 172.910156 345.742188 172.945312 C 345.308594 173.050781 344.878906 173.132812 344.449219 173.289062 C 344.03125 173.507812 343.570312 173.652344 343.210938 173.980469 L 342.660156 174.441406 C 342.503906 174.609375 342.363281 174.792969 342.21875 174.96875 C 341.648438 175.695312 341.34375 176.457031 341.085938 177.175781 C 340.625 178.609375 340.410156 179.925781 340.058594 181.121094 C 339.71875 182.3125 339.265625 183.367188 338.554688 184.15625 C 337.871094 184.914062 337.023438 185.375 335.902344 185.402344 C 334.800781 185.425781 333.582031 185.171875 332.398438 184.734375 C 331.808594 184.523438 331.226562 184.253906 330.648438 183.96875 C 330.082031 183.660156 329.480469 183.441406 328.566406 183.550781 C 328.71875 184.46875 329.242188 184.980469 329.824219 185.363281 C 330.410156 185.746094 331.003906 186.117188 331.644531 186.4375 C 332.910156 187.078125 334.304688 187.632812 335.894531 187.691406 C 337.460938 187.804688 339.296875 187.136719 340.414062 185.910156 C 341.558594 184.742188 342.214844 183.28125 342.664062 181.929688 C 343.117188 180.574219 343.40625 179.246094 343.824219 178.152344 C 344.246094 177.015625 344.773438 176.414062 345.511719 176.15625 C 346.265625 175.882812 347.53125 175.96875 348.621094 176.179688 C 349.734375 176.414062 350.757812 176.875 351.839844 177.523438 C 352.386719 177.84375 352.953125 178.207031 353.617188 178.570312 C 354.292969 178.921875 355.105469 179.296875 356.117188 179.386719 C 357.152344 179.464844 358.09375 179.097656 358.855469 178.6875 C 359.191406 178.453125 359.539062 178.242188 359.859375 177.96875 C 360.160156 177.667969 360.503906 177.417969 360.753906 177.058594 C 361.871094 175.683594 362.1875 173.90625 362.1875 172.503906 C 362.210938 171.070312 362.097656 169.773438 362.226562 168.597656 C 362.378906 167.433594 362.808594 166.460938 363.613281 165.683594 C 364.414062 164.90625 365.433594 164.449219 366.5625 164.324219 C 367.695312 164.203125 368.917969 164.417969 370.109375 164.800781 C 370.707031 164.984375 371.304688 165.210938 371.882812 165.480469 C 372.46875 165.753906 373.074219 165.949219 373.945312 165.890625 C 373.730469 165.035156 373.1875 164.535156 372.597656 164.167969 Z M 287.886719 127.269531 C 288.570312 127.113281 289.253906 126.941406 289.925781 126.707031 C 291.261719 126.238281 292.628906 125.617188 293.773438 124.515625 C 294.945312 123.464844 295.730469 121.683594 295.621094 120.023438 C 295.570312 118.394531 294.96875 116.910156 294.308594 115.652344 C 293.640625 114.382812 292.882812 113.253906 292.378906 112.195312 C 291.855469 111.105469 291.785156 110.304688 292.109375 109.597656 C 292.4375 108.863281 293.375 108.015625 294.285156 107.375 C 295.21875 106.738281 296.261719 106.316406 297.484375 105.992188 C 298.097656 105.816406 298.75 105.660156 299.46875 105.433594 C 300.191406 105.191406 301.027344 104.867188 301.789062 104.203125 C 302.566406 103.507812 302.953125 102.578125 303.183594 101.746094 C 303.246094 101.335938 303.339844 100.945312 303.363281 100.527344 C 303.351562 100.097656 303.410156 99.679688 303.324219 99.246094 C 303.105469 97.492188 302.039062 96.035156 301.03125 95.066406 C 300.007812 94.050781 298.996094 93.234375 298.238281 92.328125 C 297.5 91.410156 297.09375 90.421875 297.089844 89.308594 C 297.082031 88.191406 297.460938 87.136719 298.152344 86.242188 C 298.851562 85.339844 299.851562 84.613281 300.953125 84.019531 C 301.503906 83.714844 302.078125 83.445312 302.675781 83.210938 C 303.28125 82.980469 303.839844 82.679688 304.398438 82.011719 C 303.636719 81.574219 302.898438 81.617188 302.21875 81.785156 C 301.542969 81.960938 300.867188 82.171875 300.203125 82.449219 C 298.886719 82.992188 297.609375 83.796875 296.609375 84.976562 C 295.582031 86.136719 295.003906 87.734375 294.988281 89.296875 C 294.917969 90.867188 295.539062 92.507812 296.457031 93.695312 C 297.355469 94.898438 298.390625 95.832031 299.210938 96.765625 C 300.058594 97.695312 300.539062 98.605469 300.601562 99.539062 C 300.636719 100.011719 300.554688 100.511719 300.429688 101.019531 C 300.257812 101.457031 300.089844 101.792969 299.832031 101.988281 C 299.566406 102.195312 299.140625 102.386719 298.589844 102.542969 C 298.027344 102.703125 297.371094 102.839844 296.683594 103.007812 C 295.3125 103.347656 293.824219 103.921875 292.542969 104.789062 C 291.886719 105.222656 291.316406 105.71875 290.753906 106.265625 C 290.476562 106.566406 290.210938 106.882812 289.953125 107.207031 C 289.730469 107.59375 289.488281 107.960938 289.304688 108.375 C 289.171875 108.828125 288.957031 109.257812 288.949219 109.746094 L 288.898438 110.460938 C 288.914062 110.691406 288.945312 110.917969 288.972656 111.144531 C 289.097656 112.058594 289.441406 112.808594 289.78125 113.488281 C 290.492188 114.816406 291.292969 115.882812 291.914062 116.964844 C 292.542969 118.035156 292.992188 119.089844 293.070312 120.148438 C 293.140625 121.164062 292.882812 122.09375 292.125 122.921875 C 291.382812 123.730469 290.351562 124.433594 289.21875 124.980469 C 288.65625 125.261719 288.058594 125.496094 287.453125 125.710938 C 286.835938 125.90625 286.265625 126.1875 285.707031 126.921875 C 286.476562 127.445312 287.210938 127.425781 287.886719 127.269531 Z M 59.234375 187.03125 C 58.96875 186.886719 58.695312 186.757812 58.410156 186.648438 C 57.832031 186.457031 57.226562 186.386719 56.613281 186.34375 C 55.398438 186.28125 54.101562 186.429688 53.007812 187.046875 C 51.898438 187.621094 51.023438 188.558594 50.332031 189.527344 C 49.992188 190.015625 49.636719 190.488281 49.367188 191.007812 C 49.246094 191.277344 49.144531 191.554688 49.070312 191.839844 L 49.015625 192.285156 C 49 192.429688 49.082031 192.621094 49.554688 192.929688 C 50.132812 193.003906 50.3125 192.957031 50.398438 192.859375 L 50.644531 192.589844 C 50.808594 192.410156 50.964844 192.238281 51.089844 192.046875 C 51.371094 191.683594 51.636719 191.320312 51.992188 191.035156 C 52.703125 190.472656 53.542969 190.152344 54.320312 189.84375 C 55.113281 189.582031 55.875 189.21875 56.738281 189.066406 C 57.167969 188.992188 57.601562 188.976562 58.058594 188.925781 C 58.285156 188.921875 58.519531 188.886719 58.765625 188.859375 L 59.132812 188.832031 C 59.253906 188.839844 59.40625 188.726562 59.746094 188.171875 C 59.835938 187.542969 59.738281 187.351562 59.613281 187.285156 Z M 62.140625 179.085938 C 62.417969 179.140625 62.726562 179.085938 63.230469 178.574219 C 63.164062 177.886719 62.90625 177.65625 62.617188 177.539062 L 61.757812 177.136719 C 61.171875 176.921875 60.5625 176.734375 59.949219 176.558594 C 59.332031 176.417969 58.703125 176.332031 58.070312 176.242188 C 57.4375 176.183594 56.796875 176.171875 56.15625 176.144531 C 53.601562 176.144531 50.980469 176.613281 48.675781 177.800781 C 46.355469 178.945312 44.371094 180.675781 42.789062 182.636719 C 42.402344 183.140625 42 183.625 41.636719 184.136719 C 41.296875 184.664062 40.929688 185.175781 40.617188 185.722656 C 40.339844 186.285156 40.074219 186.855469 39.847656 187.4375 L 39.597656 188.34375 C 39.515625 188.644531 39.527344 188.984375 39.945312 189.453125 C 40.585938 189.371094 40.828125 189.167969 40.980469 188.921875 L 41.417969 188.183594 C 41.738281 187.710938 42.0625 187.246094 42.34375 186.761719 L 43.324219 185.394531 C 43.675781 184.964844 44.074219 184.5625 44.441406 184.152344 C 46.066406 182.605469 47.992188 181.464844 49.984375 180.59375 C 51.992188 179.769531 54.078125 179.078125 56.277344 178.867188 C 56.828125 178.84375 57.378906 178.792969 57.933594 178.789062 C 58.484375 178.820312 59.039062 178.816406 59.597656 178.835938 C 60.152344 178.894531 60.71875 178.921875 61.289062 178.964844 Z M 31.558594 184.980469 L 32.195312 183.78125 C 32.667969 183.011719 33.15625 182.257812 33.59375 181.476562 C 34.09375 180.734375 34.625 180.015625 35.132812 179.277344 C 35.695312 178.582031 36.316406 177.933594 36.898438 177.261719 C 39.421875 174.730469 42.449219 172.785156 45.652344 171.347656 C 48.871094 169.953125 52.28125 168.933594 55.820312 168.667969 C 56.703125 168.648438 57.589844 168.585938 58.476562 168.59375 C 59.359375 168.667969 60.253906 168.664062 61.144531 168.734375 C 62.023438 168.871094 62.917969 168.953125 63.816406 169.074219 L 65.144531 169.339844 C 65.585938 169.445312 66.054688 169.4375 66.714844 168.976562 C 66.488281 168.238281 66.070312 167.960938 65.621094 167.792969 L 64.285156 167.242188 C 63.367188 166.957031 62.433594 166.707031 61.488281 166.472656 C 60.542969 166.296875 59.578125 166.164062 58.613281 166.046875 C 57.648438 165.976562 56.671875 165.976562 55.695312 165.941406 C 51.808594 166.011719 47.863281 166.804688 44.339844 168.550781 C 40.8125 170.265625 37.730469 172.800781 35.238281 175.75 C 34.640625 176.507812 34.019531 177.242188 33.449219 178.019531 C 32.921875 178.828125 32.359375 179.613281 31.875 180.4375 C 31.433594 181.296875 31.003906 182.15625 30.625 183.035156 L 30.179688 184.402344 C 30.035156 184.855469 29.980469 185.351562 30.328125 185.972656 C 31.039062 185.738281 31.347656 185.382812 31.558594 184.980469 Z M 97.132812 349.191406 L 96.285156 349.070312 C 95.722656 349.007812 95.160156 348.957031 94.597656 348.933594 C 93.472656 348.902344 92.339844 348.878906 91.214844 348.820312 C 88.960938 348.664062 86.707031 348.453125 84.453125 348.398438 C 82.203125 348.296875 79.945312 348.46875 77.691406 348.574219 C 76.566406 348.640625 75.4375 348.675781 74.3125 348.789062 C 73.75 348.839844 73.183594 348.914062 72.621094 348.996094 L 71.777344 349.132812 C 71.496094 349.160156 71.214844 349.300781 70.933594 349.941406 C 71.214844 350.578125 71.496094 350.71875 71.777344 350.75 L 72.621094 350.886719 C 73.183594 350.964844 73.75 351.039062 74.3125 351.089844 C 75.4375 351.207031 76.566406 351.242188 77.691406 351.304688 C 79.945312 351.414062 82.203125 351.582031 84.453125 351.484375 C 86.707031 351.425781 88.960938 351.214844 91.214844 351.0625 C 92.339844 351 93.472656 350.976562 94.597656 350.945312 C 95.160156 350.925781 95.722656 350.871094 96.285156 350.808594 L 97.132812 350.6875 C 97.414062 350.644531 97.695312 350.503906 97.980469 349.941406 C 97.695312 349.378906 97.414062 349.234375 97.132812 349.191406 Z M 178.878906 349.191406 L 178.035156 349.070312 C 177.472656 349.007812 176.90625 348.957031 176.34375 348.933594 C 175.214844 348.902344 174.089844 348.878906 172.964844 348.820312 C 170.707031 348.664062 168.457031 348.453125 166.199219 348.398438 C 163.945312 348.296875 161.695312 348.46875 159.4375 348.574219 C 158.3125 348.640625 157.1875 348.675781 156.058594 348.789062 C 155.496094 348.839844 154.929688 348.914062 154.367188 348.996094 L 153.523438 349.132812 C 153.242188 349.160156 152.960938 349.300781 152.675781 349.941406 C 152.960938 350.578125 153.242188 350.71875 153.523438 350.75 L 154.367188 350.886719 C 154.929688 350.964844 155.496094 351.039062 156.058594 351.089844 C 157.1875 351.207031 158.3125 351.242188 159.4375 351.304688 C 161.695312 351.414062 163.945312 351.582031 166.199219 351.484375 C 168.457031 351.425781 170.707031 351.214844 172.964844 351.0625 C 174.089844 351 175.214844 350.976562 176.34375 350.945312 C 176.90625 350.925781 177.472656 350.871094 178.035156 350.808594 L 178.878906 350.6875 C 179.160156 350.644531 179.441406 350.503906 179.722656 349.941406 C 179.441406 349.378906 179.160156 349.234375 178.878906 349.191406 Z M 235.085938 342.046875 C 234.949219 341.683594 234.761719 341.339844 234.554688 341.011719 C 234.445312 340.851562 234.328125 340.695312 234.207031 340.539062 C 234.089844 340.390625 233.871094 340.273438 233.285156 340.386719 C 232.878906 340.816406 232.820312 341.019531 232.859375 341.1875 L 232.949219 341.691406 C 233.019531 342.023438 233.089844 342.347656 233.167969 342.660156 C 233.324219 343.292969 233.464844 343.921875 233.433594 344.53125 C 233.394531 345.132812 233.269531 345.695312 233.023438 346.128906 C 232.789062 346.558594 232.492188 346.890625 232.117188 347.167969 C 231.75 347.453125 231.300781 347.699219 230.769531 347.933594 C 230.25 348.175781 229.660156 348.382812 229.027344 348.515625 C 228.398438 348.664062 227.734375 348.742188 227.0625 348.855469 C 226.722656 348.90625 226.386719 348.996094 226.035156 349.050781 L 225.511719 349.160156 C 225.335938 349.179688 225.15625 349.3125 224.929688 349.941406 C 225.0625 350.585938 225.238281 350.738281 225.421875 350.777344 L 225.96875 350.941406 C 226.335938 351.042969 226.707031 351.101562 227.085938 351.160156 C 227.839844 351.269531 228.609375 351.257812 229.394531 351.21875 C 230.933594 351.117188 232.738281 350.839844 234.171875 349.476562 C 234.875 348.820312 235.402344 347.921875 235.621094 347 C 235.851562 346.078125 235.816406 345.183594 235.675781 344.367188 C 235.535156 343.550781 235.367188 342.777344 235.085938 342.046875 Z M 290.234375 336.796875 C 289.15625 336.726562 288.085938 336.695312 287.007812 336.664062 L 284.636719 336.621094 L 284.53125 336.445312 C 282.859375 333.628906 279.824219 331.902344 276.542969 331.902344 L 234.574219 331.902344 L 234.863281 332.574219 C 235.640625 334.386719 236.027344 336.234375 236.070312 338.046875 L 242.25 338.046875 C 242.65625 338.363281 243.066406 338.449219 243.472656 338.476562 L 245.085938 338.609375 C 246.160156 338.691406 247.234375 338.765625 248.308594 338.808594 C 250.460938 338.925781 252.605469 338.964844 254.757812 339.027344 C 259.058594 339.132812 263.359375 339.304688 267.65625 339.207031 C 271.957031 339.152344 276.257812 338.941406 280.558594 338.785156 L 287.007812 338.664062 C 288.085938 338.636719 289.15625 338.605469 290.234375 338.535156 L 291.84375 338.414062 C 292.382812 338.371094 292.917969 338.226562 293.457031 337.664062 C 292.917969 337.101562 292.382812 336.957031 291.84375 336.917969 Z M 178.511719 126.464844 L 179.632812 126.796875 C 180.386719 126.988281 181.128906 127.277344 181.910156 127.347656 C 183.457031 127.554688 185.019531 127.832031 186.597656 127.785156 C 187.386719 127.785156 188.179688 127.820312 188.96875 127.796875 L 191.339844 127.582031 C 192.136719 127.550781 192.910156 127.351562 193.6875 127.183594 C 194.460938 127.003906 195.246094 126.859375 195.992188 126.574219 C 199.042969 125.65625 201.851562 124.078125 204.410156 122.273438 C 205.703125 121.382812 206.941406 120.421875 208.113281 119.386719 C 208.683594 118.847656 209.242188 118.296875 209.742188 117.6875 C 209.996094 117.390625 210.230469 117.074219 210.464844 116.757812 C 210.695312 116.445312 210.855469 116.035156 210.648438 115.390625 C 209.96875 115.335938 209.636719 115.511719 209.351562 115.753906 C 209.074219 115.996094 208.796875 116.234375 208.503906 116.460938 L 206.800781 117.863281 C 206.21875 118.308594 205.652344 118.777344 205.050781 119.199219 C 204.433594 119.59375 203.84375 120.035156 203.195312 120.386719 C 200.640625 121.828125 197.90625 122.890625 195.113281 123.617188 C 192.316406 124.285156 189.488281 124.996094 186.5625 125.058594 C 185.101562 125.222656 183.640625 125.039062 182.164062 125.074219 C 181.421875 125.09375 180.691406 124.964844 179.945312 124.933594 L 178.824219 124.875 C 178.449219 124.839844 178.0625 124.917969 177.546875 125.472656 C 177.777344 126.164062 178.136719 126.371094 178.511719 126.464844 Z M 250.761719 251.273438 C 251.027344 251.160156 251.28125 251 251.523438 250.824219 L 251.878906 250.558594 C 252 250.488281 252.085938 250.296875 251.976562 249.664062 C 251.617188 249.125 251.449219 249.019531 251.320312 249.039062 L 250.921875 249.035156 C 250.660156 249.046875 250.40625 249.046875 250.148438 249.054688 C 249.894531 249.0625 249.652344 249.082031 249.410156 249.117188 L 248.671875 249.164062 C 247.683594 249.207031 246.710938 249.121094 245.730469 249.191406 C 244.75 249.226562 243.734375 249.367188 242.710938 249.335938 C 242.199219 249.324219 241.699219 249.222656 241.195312 249.140625 C 240.945312 249.097656 240.6875 249.082031 240.425781 249.074219 L 240.027344 249.082031 C 239.890625 249.082031 239.734375 249.1875 239.417969 249.664062 C 239.355469 250.234375 239.449219 250.425781 239.570312 250.503906 C 239.691406 250.585938 239.8125 250.671875 239.9375 250.746094 C 240.1875 250.886719 240.449219 251.003906 240.714844 251.09375 C 241.246094 251.269531 241.792969 251.375 242.332031 251.546875 C 242.632812 251.640625 242.941406 251.730469 243.246094 251.816406 C 243.355469 252 243.472656 252.183594 243.617188 252.335938 C 243.96875 252.722656 244.378906 253.035156 244.75 253.390625 C 245.5 254.09375 246.28125 254.800781 247.171875 255.277344 C 248.042969 255.8125 249.046875 256.011719 250.003906 256.246094 C 250.496094 256.335938 250.972656 256.457031 251.46875 256.492188 C 251.71875 256.507812 251.972656 256.503906 252.230469 256.488281 L 252.613281 256.453125 C 252.734375 256.464844 252.890625 256.347656 253.160156 255.765625 C 253.203125 255.125 253.132812 254.945312 253.03125 254.890625 L 252.734375 254.667969 C 252.53125 254.53125 252.335938 254.398438 252.128906 254.289062 C 251.730469 254.046875 251.3125 253.867188 250.90625 253.671875 C 250.097656 253.257812 249.335938 252.789062 248.515625 252.492188 C 248.234375 252.378906 247.941406 252.277344 247.648438 252.179688 C 248.144531 252.09375 248.636719 251.976562 249.117188 251.855469 C 249.679688 251.699219 250.238281 251.542969 250.761719 251.273438 Z M 240.566406 234.203125 L 239.578125 234.621094 C 238.929688 234.917969 238.292969 235.238281 237.671875 235.585938 C 236.433594 236.289062 235.214844 237.027344 233.992188 237.773438 C 232.753906 238.507812 231.535156 239.265625 230.335938 240.113281 C 229.144531 240.972656 227.976562 241.882812 226.917969 243.160156 C 226.421875 243.824219 225.84375 244.554688 225.671875 245.851562 C 225.636719 246.496094 225.769531 247.140625 226.007812 247.644531 C 226.246094 248.152344 226.550781 248.558594 226.863281 248.894531 C 228.140625 250.203125 229.519531 250.851562 230.867188 251.496094 C 232.226562 252.097656 233.59375 252.609375 234.992188 252.988281 C 235.691406 253.179688 236.398438 253.335938 237.105469 253.46875 L 238.171875 253.652344 C 238.523438 253.722656 238.914062 253.683594 239.417969 253.152344 C 239.242188 252.449219 238.949219 252.222656 238.625 252.097656 L 237.667969 251.667969 L 235.765625 250.820312 C 234.507812 250.25 233.253906 249.703125 232.085938 249.058594 C 230.9375 248.425781 229.808594 247.652344 229.175781 246.871094 C 228.847656 246.472656 228.808594 246.195312 228.808594 246.113281 C 228.8125 245.996094 229.023438 245.488281 229.371094 245.042969 C 230.054688 244.101562 231.046875 243.15625 232.046875 242.253906 C 233.050781 241.34375 234.136719 240.480469 235.242188 239.636719 C 236.363281 238.816406 237.53125 238.054688 238.710938 237.308594 C 239.296875 236.929688 239.871094 236.535156 240.449219 236.128906 L 241.300781 235.503906 C 241.582031 235.296875 241.816406 235.003906 241.859375 234.339844 C 241.28125 234.015625 240.894531 234.0625 240.566406 234.203125 Z M 178.03125 110.789062 C 178.253906 110.902344 178.472656 111.007812 178.703125 111.074219 C 179.164062 111.214844 179.636719 111.300781 180.09375 111.457031 C 181.019531 111.753906 181.949219 112.117188 182.925781 112.25 C 183.902344 112.421875 184.90625 112.300781 185.910156 112.144531 C 186.410156 112.050781 186.910156 111.992188 187.40625 111.796875 C 187.652344 111.703125 187.890625 111.609375 188.125 111.46875 L 188.46875 111.25 C 188.585938 111.195312 188.675781 111.019531 188.617188 110.386719 C 188.332031 109.804688 188.195312 109.675781 188.082031 109.675781 L 187.746094 109.617188 C 187.527344 109.59375 187.296875 109.53125 187.082031 109.519531 L 185.796875 109.421875 C 184.933594 109.351562 184.070312 109.140625 183.191406 109.167969 C 182.304688 109.148438 181.386719 109.253906 180.472656 109.246094 C 180.011719 109.246094 179.566406 109.15625 179.117188 109.105469 C 178.890625 109.082031 178.660156 109.082031 178.421875 109.09375 L 178.0625 109.136719 C 177.941406 109.148438 177.800781 109.265625 177.546875 109.773438 C 177.519531 110.347656 177.601562 110.519531 177.710938 110.589844 Z M 172.160156 105.261719 L 173.042969 105.582031 C 173.636719 105.753906 174.238281 105.9375 174.847656 106.046875 C 175.457031 106.175781 176.066406 106.273438 176.683594 106.355469 C 177.296875 106.460938 177.910156 106.554688 178.527344 106.621094 C 180.992188 106.976562 183.511719 107.257812 186.054688 107.035156 C 188.605469 106.859375 191.125 106.160156 193.488281 105.089844 C 194.636719 104.464844 195.824219 103.929688 196.808594 103.046875 C 197.308594 102.632812 197.828125 102.246094 198.226562 101.71875 L 198.84375 100.964844 C 199.054688 100.726562 199.195312 100.402344 198.949219 99.765625 C 198.257812 99.535156 197.949219 99.625 197.714844 99.796875 L 196.996094 100.28125 C 196.550781 100.640625 196.003906 100.859375 195.515625 101.140625 C 194.554688 101.734375 193.480469 102.128906 192.445312 102.566406 C 190.296875 103.308594 188.027344 103.613281 185.746094 103.964844 C 183.457031 104.273438 181.097656 104.425781 178.722656 104.386719 C 177.539062 104.355469 176.355469 104.222656 175.175781 104.0625 C 174.585938 104 173.992188 103.921875 173.394531 103.878906 L 172.5 103.804688 C 172.203125 103.773438 171.882812 103.847656 171.445312 104.316406 C 171.59375 104.9375 171.871094 105.148438 172.160156 105.261719 Z M 176.011719 74.738281 C 176.242188 74.257812 176.46875 73.773438 176.6875 73.285156 L 177.085938 72.34375 C 177.214844 72.03125 177.261719 71.667969 176.949219 71.085938 C 176.292969 71.09375 175.992188 71.320312 175.785156 71.597656 L 175.171875 72.433594 C 175.023438 72.644531 174.902344 72.859375 174.761719 73.070312 C 174.734375 73.421875 174.667969 74.042969 174.542969 74.839844 C 174.710938 74.800781 174.890625 74.773438 175.078125 74.75 C 175.382812 74.71875 175.695312 74.71875 176.011719 74.738281 Z M 168.636719 94.421875 C 169.367188 95.839844 170.511719 97.082031 171.90625 97.828125 C 172.589844 98.210938 173.324219 98.484375 174.066406 98.648438 C 174.441406 98.722656 174.816406 98.78125 175.191406 98.816406 C 175.554688 98.863281 175.980469 98.789062 176.371094 98.171875 C 176.078125 97.515625 175.828125 97.324219 175.527344 97.230469 C 175.230469 97.121094 174.949219 97 174.675781 96.859375 C 174.117188 96.59375 173.617188 96.257812 173.160156 95.898438 C 172.242188 95.175781 171.523438 94.296875 171.09375 93.234375 C 170.878906 92.726562 170.695312 92.121094 170.632812 91.601562 L 170.585938 90.84375 C 170.621094 90.558594 170.648438 90.269531 170.667969 89.984375 C 170.832031 88.816406 171.101562 87.570312 171.464844 86.324219 C 172.1875 83.828125 173.0625 81.277344 174.09375 78.785156 C 174.371094 78.136719 174.667969 77.496094 174.976562 76.859375 C 174.535156 76.960938 174.226562 77.136719 174.042969 77.277344 C 173.332031 80.066406 171.96875 83.472656 169.363281 85.453125 C 169.019531 85.714844 168.65625 85.929688 168.289062 86.132812 C 167.941406 87.269531 167.675781 88.460938 167.605469 89.738281 C 167.589844 90.136719 167.589844 90.53125 167.589844 90.925781 C 167.628906 91.339844 167.714844 91.773438 167.789062 92.191406 C 167.980469 93.007812 168.261719 93.703125 168.636719 94.421875 Z M 171.085938 79.628906 C 170.765625 80.238281 170.453125 80.847656 170.152344 81.46875 C 170.507812 80.882812 170.820312 80.261719 171.085938 79.628906 Z M 171.714844 66.28125 C 171.917969 66.257812 172.125 66.238281 172.332031 66.222656 L 172.664062 66.1875 C 172.765625 66.191406 172.910156 66.074219 173.230469 65.515625 C 173.34375 64.886719 173.273438 64.707031 173.167969 64.644531 L 172.863281 64.414062 C 172.65625 64.257812 172.4375 64.121094 172.207031 64.027344 C 171.746094 63.8125 171.25 63.695312 170.757812 63.605469 C 169.769531 63.417969 168.722656 63.296875 167.753906 63.574219 C 166.773438 63.800781 165.894531 64.292969 165.066406 64.777344 C 164.652344 65.027344 164.21875 65.214844 163.820312 65.46875 C 163.617188 65.597656 163.433594 65.753906 163.257812 65.929688 C 163.175781 66.015625 163.097656 66.121094 163.015625 66.21875 C 162.9375 66.3125 162.910156 66.507812 163.136719 67.027344 C 163.542969 67.429688 163.699219 67.503906 163.808594 67.484375 L 164.136719 67.433594 C 164.34375 67.382812 164.546875 67.332031 164.738281 67.257812 C 165.121094 67.113281 165.492188 66.941406 165.894531 66.859375 C 166.703125 66.691406 167.527344 66.699219 168.285156 66.621094 C 169.050781 66.574219 169.78125 66.378906 170.546875 66.324219 L 171.125 66.292969 C 171.320312 66.300781 171.515625 66.300781 171.714844 66.28125 Z M 189.203125 66.316406 L 189.710938 66.410156 C 190.050781 66.457031 190.386719 66.5 190.722656 66.519531 C 191.394531 66.566406 192.066406 66.601562 192.726562 66.738281 C 194.039062 67.023438 195.285156 67.496094 196.488281 67.9375 C 197.6875 68.398438 198.878906 68.8125 200.011719 69.40625 L 200.847656 69.882812 C 201.109375 70.066406 201.371094 70.246094 201.652344 70.414062 C 201.941406 70.578125 202.222656 70.753906 202.488281 70.953125 L 202.917969 71.226562 C 203.054688 71.328125 203.269531 71.359375 203.886719 71.085938 C 204.265625 70.554688 204.246094 70.324219 204.144531 70.167969 L 203.871094 69.660156 C 203.683594 69.316406 203.464844 68.996094 203.203125 68.714844 C 202.953125 68.421875 202.695312 68.132812 202.414062 67.867188 L 201.515625 67.132812 C 200.289062 66.207031 198.9375 65.347656 197.4375 64.996094 C 195.957031 64.585938 194.425781 64.5 192.941406 64.507812 C 192.195312 64.515625 191.464844 64.46875 190.726562 64.511719 C 190.355469 64.53125 189.988281 64.589844 189.625 64.671875 C 189.441406 64.714844 189.257812 64.777344 189.082031 64.828125 C 188.902344 64.882812 188.722656 65.046875 188.617188 65.625 C 188.859375 66.164062 189.027344 66.292969 189.203125 66.316406 Z M 87.050781 224.652344 C 88.980469 224.742188 90.90625 224.769531 92.835938 224.796875 L 104.402344 224.917969 L 115.96875 225.164062 L 127.535156 225.339844 C 135.246094 225.410156 142.957031 225.285156 150.667969 225.160156 C 154.523438 225.097656 158.378906 225.058594 162.234375 224.941406 C 164.160156 224.90625 166.089844 224.808594 168.015625 224.726562 L 170.910156 224.605469 C 171.871094 224.578125 172.839844 224.433594 173.800781 223.796875 C 172.839844 223.160156 171.871094 223.015625 170.910156 222.988281 L 168.015625 222.867188 C 166.089844 222.785156 164.160156 222.691406 162.234375 222.652344 C 158.378906 222.53125 154.523438 222.496094 150.667969 222.433594 C 142.957031 222.3125 135.246094 222.1875 127.535156 222.253906 L 115.96875 222.429688 L 104.402344 222.675781 L 92.835938 222.796875 C 90.90625 222.828125 88.980469 222.851562 87.050781 222.941406 L 84.160156 223.050781 C 83.195312 223.089844 82.230469 223.234375 81.265625 223.796875 C 82.230469 224.359375 83.195312 224.503906 84.160156 224.542969 Z M 321.242188 308.976562 C 320.996094 307.519531 320.828125 306.035156 320.421875 304.601562 C 319.796875 301.691406 318.742188 298.894531 317.609375 296.128906 C 316.40625 293.394531 315 290.746094 313.382812 288.21875 C 311.753906 285.703125 309.835938 283.382812 307.804688 281.1875 C 303.644531 276.863281 298.769531 273.3125 293.589844 270.445312 C 291 268.996094 288.34375 267.679688 285.605469 266.558594 C 284.234375 266 282.84375 265.492188 281.421875 265.078125 C 280.710938 264.863281 279.996094 264.679688 279.277344 264.5 C 278.863281 264.398438 278.433594 264.347656 277.988281 264.382812 C 277.128906 262.828125 276.269531 261.28125 275.386719 259.746094 C 272.679688 254.9375 269.902344 250.167969 267.140625 245.382812 L 262.996094 238.214844 C 262.308594 237.078125 262 236.183594 261.820312 234.832031 C 261.59375 233.460938 261.347656 232.085938 261.082031 230.71875 C 260.5625 227.976562 259.929688 225.253906 259.164062 222.550781 C 258.386719 219.847656 257.53125 217.152344 256.253906 214.519531 C 255.59375 213.210938 254.855469 211.898438 253.679688 210.6875 C 253.363281 210.390625 253.039062 210.09375 252.632812 209.835938 C 252.449219 209.695312 252.207031 209.597656 251.992188 209.484375 C 251.871094 209.425781 251.78125 209.382812 251.714844 209.355469 L 251.472656 209.257812 L 249.53125 208.46875 C 246.9375 207.445312 244.328125 206.46875 241.667969 205.597656 C 238.988281 204.757812 236.3125 203.9375 233.410156 203.519531 L 232.296875 203.402344 L 231.109375 203.390625 C 230.363281 203.4375 229.648438 203.527344 228.933594 203.636719 C 227.511719 203.867188 226.121094 204.195312 224.746094 204.597656 C 222.019531 205.425781 219.328125 206.496094 216.929688 208.253906 C 215.746094 209.136719 214.609375 210.214844 213.867188 211.65625 C 213.152344 213.105469 212.902344 214.554688 212.769531 216.023438 C 212.570312 218.945312 212.890625 221.777344 213.863281 224.570312 C 213.9375 224.753906 213.988281 224.917969 214.101562 225.128906 C 214.171875 225.261719 214.339844 225.671875 214.722656 225.871094 C 214.9375 226 215.035156 226.015625 215.140625 226.046875 C 215.253906 226.078125 215.367188 226.113281 215.457031 226.128906 C 215.648438 226.167969 215.84375 226.207031 216.019531 226.230469 C 216.746094 226.335938 217.441406 226.394531 218.140625 226.445312 C 219.058594 226.507812 219.976562 226.492188 220.898438 226.34375 C 220.414062 226.757812 219.933594 227.167969 219.46875 227.613281 C 219.179688 227.875 218.90625 228.167969 218.632812 228.472656 C 218.359375 228.777344 218.074219 229.042969 217.820312 229.425781 C 217.5625 229.796875 217.296875 230.078125 217.0625 230.621094 C 216.949219 230.867188 216.824219 231.101562 216.75 231.367188 C 216.695312 231.652344 216.648438 231.9375 216.613281 232.226562 C 216.558594 232.527344 216.617188 232.753906 216.628906 233.011719 C 216.660156 233.257812 216.667969 233.535156 216.734375 233.75 C 216.867188 234.183594 216.960938 234.65625 217.140625 235.035156 C 217.457031 235.835938 217.84375 236.5625 218.257812 237.242188 C 219.09375 238.605469 220.015625 239.851562 221.042969 240.996094 C 221.554688 241.570312 222.09375 242.113281 222.652344 242.640625 L 223.5 243.414062 C 223.773438 243.671875 224.140625 243.863281 224.863281 243.695312 C 225.070312 242.988281 224.9375 242.625 224.710938 242.332031 L 224.085938 241.414062 L 222.867188 239.585938 C 222.070312 238.371094 221.269531 237.164062 220.644531 235.921875 C 220.332031 235.304688 220.0625 234.675781 219.878906 234.074219 C 219.753906 233.761719 219.753906 233.488281 219.683594 233.203125 C 219.644531 233.0625 219.679688 232.957031 219.664062 232.832031 C 219.671875 232.722656 219.628906 232.570312 219.675781 232.503906 C 219.726562 231.96875 220.714844 230.78125 221.664062 229.789062 C 223.640625 227.75 225.828125 225.722656 228.082031 223.796875 C 229.21875 222.847656 230.402344 221.953125 231.585938 221.046875 C 232.171875 220.601562 232.746094 220.121094 233.320312 219.640625 L 234.160156 218.898438 C 234.441406 218.65625 234.664062 218.328125 234.65625 217.652344 C 234.027344 217.398438 233.636719 217.496094 233.304688 217.675781 L 232.3125 218.222656 C 231.660156 218.601562 231.023438 219 230.402344 219.421875 L 226.714844 222.023438 C 225.007812 223.203125 223.292969 224.390625 221.652344 225.71875 C 220.53125 225.300781 219.40625 225.097656 218.285156 224.960938 C 217.613281 224.875 216.933594 224.78125 216.300781 224.65625 C 216.132812 224.621094 215.992188 224.585938 215.84375 224.550781 C 215.761719 224.53125 215.714844 224.507812 215.660156 224.488281 C 215.648438 224.472656 215.640625 224.445312 215.621094 224.40625 C 215.570312 224.304688 215.527344 224.140625 215.476562 224.003906 C 215.105469 222.796875 214.90625 221.445312 214.777344 220.136719 C 214.648438 218.820312 214.628906 217.492188 214.765625 216.203125 C 214.738281 210.671875 220.363281 208.203125 225.363281 206.757812 C 226.652344 206.421875 227.960938 206.152344 229.269531 205.980469 C 229.925781 205.898438 230.585938 205.835938 231.214844 205.816406 L 232.101562 205.851562 L 233.050781 205.984375 C 235.609375 206.425781 238.222656 207.292969 240.785156 208.1875 C 243.351562 209.089844 245.902344 210.105469 248.425781 211.160156 L 250.308594 211.972656 L 250.542969 212.074219 C 250.636719 212.117188 250.707031 212.148438 250.734375 212.171875 C 250.816406 212.230469 250.910156 212.242188 250.996094 212.320312 C 251.171875 212.441406 251.359375 212.613281 251.542969 212.792969 C 252.28125 213.582031 252.929688 214.699219 253.472656 215.863281 C 255.683594 220.609375 256.894531 226.027344 258.085938 231.324219 C 258.371094 232.660156 258.632812 234 258.882812 235.34375 L 258.972656 235.847656 C 259.011719 236.042969 259.050781 236.242188 259.097656 236.4375 C 259.191406 236.832031 259.308594 237.21875 259.449219 237.59375 C 259.589844 237.972656 259.75 238.34375 259.933594 238.699219 C 260.113281 239.0625 260.332031 239.414062 260.496094 239.6875 L 264.789062 246.769531 C 267.65625 251.488281 270.5 256.222656 273.414062 260.910156 C 274.851562 263.269531 276.339844 265.59375 277.816406 267.925781 L 280.03125 271.429688 C 280.757812 272.601562 281.582031 273.71875 282.835938 274.578125 C 282.683594 273.066406 282.105469 271.804688 281.425781 270.605469 L 279.421875 266.980469 C 279.226562 266.628906 279.035156 266.28125 278.84375 265.933594 C 279.515625 266.179688 280.183594 266.445312 280.851562 266.714844 C 282.179688 267.257812 283.511719 267.804688 284.820312 268.398438 C 287.441406 269.566406 290.007812 270.871094 292.445312 272.378906 C 297.316406 275.417969 301.695312 279.140625 305.546875 283.296875 C 307.472656 285.371094 309.191406 287.628906 310.84375 289.921875 C 312.449219 292.25 313.875 294.707031 315.125 297.257812 C 316.304688 299.835938 317.390625 302.476562 318.210938 305.210938 C 318.671875 306.566406 319.019531 307.953125 319.410156 309.335938 C 319.625 310.023438 319.742188 310.734375 319.902344 311.4375 C 320.039062 312.144531 320.289062 312.828125 321.035156 313.464844 C 321.554688 312.667969 321.585938 311.910156 321.5 311.179688 C 321.417969 310.445312 321.378906 309.703125 321.242188 308.976562 Z M 269.980469 299.792969 C 282.171875 295.074219 287.605469 282.058594 287.828125 281.507812 C 288.152344 280.714844 287.769531 279.8125 286.976562 279.492188 C 286.1875 279.164062 285.28125 279.542969 284.957031 280.335938 C 284.90625 280.457031 279.777344 292.691406 268.839844 296.914062 C 263.167969 299.101562 256.867188 298.777344 250.082031 295.96875 L 250.023438 294.652344 C 249.972656 293.773438 249.925781 292.898438 249.839844 292.023438 C 249.703125 290.273438 249.488281 288.53125 249.292969 286.789062 C 248.886719 283.304688 248.546875 279.8125 247.945312 276.355469 C 247.378906 272.894531 246.660156 269.457031 246 266.015625 C 245.6875 264.285156 245.40625 262.554688 245.121094 260.824219 C 244.972656 259.960938 244.796875 259.101562 244.605469 258.242188 L 244.292969 256.960938 C 244.1875 256.535156 243.984375 256.117188 243.359375 255.765625 C 242.867188 256.285156 242.785156 256.738281 242.8125 257.179688 L 242.882812 258.496094 C 242.945312 259.371094 243.019531 260.246094 243.128906 261.117188 C 243.351562 262.855469 243.582031 264.59375 243.777344 266.335938 C 244.132812 269.828125 244.433594 273.328125 244.886719 276.804688 C 245.300781 280.285156 245.980469 283.730469 246.589844 287.183594 C 246.90625 288.910156 247.203125 290.636719 247.574219 292.355469 C 247.738281 293.214844 247.949219 294.074219 248.152344 294.929688 L 248.207031 295.144531 C 247.4375 294.78125 246.515625 295.109375 246.152344 295.878906 C 245.785156 296.652344 246.109375 297.574219 246.886719 297.941406 C 251.804688 300.28125 256.542969 301.453125 261.042969 301.453125 C 264.136719 301.453125 267.125 300.898438 269.980469 299.792969 Z M 231.0625 337.15625 C 231.269531 337.15625 231.484375 337.113281 231.691406 337.023438 C 232.472656 336.675781 232.828125 335.761719 232.476562 334.976562 L 192.542969 245.222656 C 188.464844 236.0625 179.339844 230.136719 169.296875 230.136719 L 2.328125 230.5 C 1.472656 230.5 0.78125 231.199219 0.78125 232.050781 C 0.78125 232.902344 1.476562 233.597656 2.332031 233.597656 C 2.332031 233.597656 2.335938 233.597656 2.335938 233.597656 L 169.300781 233.234375 C 178.117188 233.234375 186.128906 238.433594 189.707031 246.484375 L 229.644531 336.238281 C 229.902344 336.816406 230.46875 337.15625 231.0625 337.15625 Z M 162.785156 41.351562 L 153.367188 39.832031 C 153.367188 39.832031 165.21875 17.070312 189.832031 18.898438 C 214.449219 20.714844 230.855469 36.796875 232.375 47.417969 C 232.375 47.417969 238.453125 48.9375 239.367188 54.09375 C 240.277344 59.253906 229.195312 76.828125 229.195312 76.828125 C 229.195312 76.828125 226.144531 71.695312 218.019531 74.730469 L 219.308594 52.578125 C 219.308594 52.578125 163.632812 73.191406 166.703125 54.691406 L 148.804688 60.164062 C 148.804688 60.164062 155.1875 45.902344 162.785156 41.351562"/><g clip-path="url(#b)"><path fill="#F1E510" d="M 390.4375 300.042969 L 389.878906 299.777344 C 389.503906 299.613281 389.128906 299.453125 388.75 299.3125 C 387.992188 299.027344 387.214844 298.816406 386.449219 298.578125 C 384.910156 298.121094 383.382812 297.601562 381.796875 297.347656 C 380.21875 297.050781 378.605469 296.90625 377.011719 296.703125 C 376.210938 296.601562 375.429688 296.421875 374.636719 296.289062 C 374.242188 296.222656 373.839844 296.179688 373.433594 296.160156 L 372.820312 296.144531 C 372.617188 296.140625 372.390625 296.234375 372.070312 296.738281 C 372.140625 297.335938 372.304688 297.519531 372.492188 297.601562 L 373.050781 297.851562 C 373.429688 298.003906 373.808594 298.144531 374.195312 298.25 C 374.96875 298.46875 375.75 298.640625 376.515625 298.890625 C 378.046875 299.390625 379.5625 299.949219 381.113281 300.359375 C 382.660156 300.808594 384.261719 300.996094 385.851562 301.238281 C 386.644531 301.355469 387.4375 301.496094 388.242188 301.5625 C 388.644531 301.597656 389.054688 301.613281 389.460938 301.621094 L 390.078125 301.621094 C 390.28125 301.636719 390.507812 301.542969 390.84375 300.964844 C 390.789062 300.296875 390.625 300.113281 390.4375 300.042969 Z M 396.046875 282.945312 L 395.246094 282.914062 C 394.714844 282.894531 394.183594 282.890625 393.65625 282.902344 C 392.59375 282.925781 391.546875 283.019531 390.492188 283.09375 C 388.386719 283.25 386.277344 283.347656 384.203125 283.710938 C 382.121094 284.035156 380.054688 284.511719 377.988281 284.929688 C 376.953125 285.136719 375.90625 285.265625 374.871094 285.441406 C 374.347656 285.527344 373.832031 285.648438 373.316406 285.777344 L 372.550781 286 C 372.292969 286.070312 372.050781 286.246094 371.863281 286.839844 C 372.195312 287.363281 372.472656 287.472656 372.738281 287.480469 L 373.539062 287.5 C 374.070312 287.5 374.597656 287.484375 375.121094 287.4375 C 376.175781 287.347656 377.21875 287.210938 378.269531 287.152344 C 380.378906 287.039062 382.496094 286.984375 384.59375 286.773438 C 386.695312 286.605469 388.761719 286.171875 390.839844 285.796875 C 391.875 285.601562 392.914062 285.433594 393.945312 285.1875 C 394.460938 285.070312 394.972656 284.929688 395.484375 284.785156 L 396.253906 284.550781 C 396.507812 284.488281 396.75 284.316406 396.933594 283.648438 C 396.589844 283.046875 396.308594 282.941406 396.046875 282.945312 Z M 96.414062 152.660156 C 96.351562 152.464844 96.285156 152.277344 96.199219 152.105469 C 96.035156 151.757812 95.816406 151.457031 95.613281 151.140625 C 95.207031 150.519531 94.835938 149.851562 94.269531 149.371094 C 93.738281 148.851562 93.070312 148.457031 92.472656 148.003906 C 92.167969 147.78125 91.925781 147.5 91.648438 147.253906 C 91.507812 147.132812 91.347656 147.027344 91.171875 146.933594 L 90.898438 146.808594 C 90.804688 146.765625 90.632812 146.796875 90.15625 147.101562 C 89.800781 147.539062 89.75 147.710938 89.78125 147.804688 L 89.878906 148.09375 C 89.953125 148.273438 90.039062 148.449219 90.144531 148.597656 C 90.359375 148.902344 90.609375 149.171875 90.800781 149.5 C 91.191406 150.144531 91.507812 150.847656 91.96875 151.429688 C 92.390625 152.046875 93.007812 152.484375 93.582031 152.960938 C 93.878906 153.191406 94.148438 153.445312 94.480469 153.644531 C 94.644531 153.746094 94.824219 153.835938 95.007812 153.921875 L 95.292969 154.035156 C 95.371094 154.085938 95.550781 154.054688 96.082031 153.699219 C 96.488281 153.210938 96.542969 153.039062 96.5 152.953125 Z M 92.957031 158.351562 C 92.714844 158.136719 92.476562 157.929688 92.222656 157.742188 C 91.722656 157.359375 91.191406 157.042969 90.667969 156.699219 C 89.617188 156.03125 88.59375 155.316406 87.445312 154.832031 C 86.324219 154.308594 85.113281 153.945312 83.949219 153.5 C 83.359375 153.285156 82.8125 152.996094 82.242188 152.75 C 81.957031 152.625 81.65625 152.53125 81.355469 152.445312 L 80.882812 152.339844 C 80.726562 152.304688 80.523438 152.367188 80.125 152.792969 C 80.007812 153.359375 80.078125 153.558594 80.195312 153.667969 L 80.554688 153.992188 C 80.800781 154.1875 81.050781 154.378906 81.316406 154.535156 C 81.847656 154.859375 82.398438 155.140625 82.914062 155.492188 C 83.953125 156.1875 84.945312 156.960938 86.023438 157.574219 C 87.082031 158.230469 88.261719 158.652344 89.414062 159.121094 C 89.992188 159.351562 90.5625 159.605469 91.164062 159.785156 C 91.464844 159.886719 91.773438 159.960938 92.085938 160.027344 L 92.5625 160.125 C 92.710938 160.171875 92.917969 160.105469 93.347656 159.617188 C 93.5 158.988281 93.433594 158.78125 93.304688 158.683594 Z M 248.261719 109.773438 C 247.691406 109.769531 247.515625 109.851562 247.453125 109.957031 L 247.253906 110.28125 C 247.136719 110.496094 247.03125 110.71875 246.960938 110.949219 C 246.808594 111.402344 246.707031 111.867188 246.527344 112.316406 C 246.175781 113.214844 245.738281 114.089844 245.472656 115.003906 C 245.164062 115.914062 245.113281 116.878906 245.007812 117.835938 C 244.960938 118.3125 244.890625 118.789062 244.894531 119.277344 C 244.890625 119.519531 244.910156 119.769531 244.9375 120.019531 L 244.988281 120.398438 C 244.984375 120.519531 245.109375 120.671875 245.699219 120.929688 C 246.339844 120.953125 246.515625 120.871094 246.570312 120.757812 L 246.78125 120.441406 C 246.910156 120.230469 247.039062 120.011719 247.140625 119.792969 C 247.359375 119.351562 247.5 118.898438 247.667969 118.445312 C 247.992188 117.542969 248.371094 116.648438 248.488281 115.699219 C 248.652344 114.757812 248.640625 113.773438 248.714844 112.816406 C 248.746094 112.335938 248.859375 111.871094 248.921875 111.394531 C 248.957031 111.160156 248.957031 110.914062 248.949219 110.667969 L 248.910156 110.292969 C 248.898438 110.167969 248.78125 110.019531 248.261719 109.773438 Z M 255.167969 118.726562 C 254.632812 118.546875 254.453125 118.554688 254.371094 118.621094 L 254.125 118.820312 C 253.96875 118.957031 253.832031 119.105469 253.71875 119.265625 C 253.488281 119.582031 253.304688 119.929688 253.046875 120.230469 C 252.542969 120.847656 251.960938 121.417969 251.539062 122.074219 C 251.070312 122.710938 250.835938 123.476562 250.554688 124.210938 C 250.421875 124.582031 250.261719 124.941406 250.171875 125.339844 C 250.121094 125.535156 250.089844 125.742188 250.070312 125.953125 L 250.042969 126.269531 C 250.019531 126.371094 250.105469 126.53125 250.609375 126.921875 C 251.207031 127.144531 251.390625 127.132812 251.460938 127.058594 L 251.71875 126.867188 C 251.886719 126.738281 252.046875 126.601562 252.1875 126.457031 C 252.476562 126.167969 252.695312 125.847656 252.941406 125.535156 C 253.417969 124.90625 253.945312 124.304688 254.242188 123.574219 C 254.578125 122.867188 254.753906 122.074219 255.007812 121.320312 C 255.132812 120.941406 255.328125 120.601562 255.476562 120.242188 C 255.558594 120.058594 255.605469 119.863281 255.644531 119.664062 L 255.679688 119.347656 C 255.691406 119.242188 255.609375 119.085938 255.167969 118.726562 Z M 281.042969 176.226562 C 280.265625 177.109375 279.6875 177.988281 279.152344 178.945312 C 278.613281 179.886719 278.144531 180.859375 277.726562 181.851562 C 276.890625 183.839844 276.304688 185.90625 275.808594 187.980469 C 275.28125 190.054688 274.972656 192.167969 274.71875 194.277344 C 274.601562 195.335938 274.523438 196.390625 274.449219 197.449219 L 274.355469 200.625 C 274.34375 201.003906 274.625 201.332031 275.007812 201.371094 C 275.410156 201.414062 275.769531 201.125 275.8125 200.722656 L 275.8125 200.691406 L 276.132812 197.597656 L 276.554688 194.519531 C 276.738281 193.503906 276.871094 192.476562 277.101562 191.472656 L 277.402344 189.957031 L 277.765625 188.457031 C 278.269531 186.46875 278.882812 184.507812 279.605469 182.597656 C 280.328125 180.71875 281.164062 178.785156 282.167969 177.152344 L 282.210938 177.085938 C 282.390625 176.785156 282.339844 176.394531 282.070312 176.15625 C 281.769531 175.890625 281.308594 175.921875 281.042969 176.226562 Z M 340.199219 274.371094 C 340.078125 274.015625 339.703125 273.796875 339.332031 273.886719 C 338.9375 273.980469 338.695312 274.375 338.792969 274.769531 L 338.800781 274.789062 C 339.859375 279.148438 340.703125 283.605469 341.402344 288.050781 C 342.082031 292.503906 342.5625 296.984375 342.710938 301.472656 C 342.820312 305.953125 342.621094 310.453125 341.773438 314.816406 C 340.917969 319.164062 339.375 323.421875 336.65625 326.886719 L 336.644531 326.898438 C 336.40625 327.203125 336.449219 327.648438 336.75 327.902344 C 337.0625 328.160156 337.519531 328.121094 337.777344 327.816406 C 340.820312 324.191406 342.636719 319.71875 343.585938 315.191406 C 344.066406 312.921875 344.390625 310.625 344.570312 308.324219 C 344.726562 306.023438 344.773438 303.71875 344.726562 301.421875 C 344.605469 296.824219 344.15625 292.246094 343.382812 287.734375 C 342.621094 283.210938 341.597656 278.757812 340.199219 274.371094 Z M 220.125 34.53125 C 219.574219 34.082031 219.007812 33.675781 218.429688 33.28125 C 217.277344 32.507812 216.113281 31.75 214.746094 31.320312 C 214.488281 31.238281 214.199219 31.300781 213.992188 31.5 C 213.699219 31.792969 213.695312 32.269531 213.988281 32.5625 L 213.992188 32.566406 C 214.984375 33.566406 216.164062 34.269531 217.320312 34.988281 L 219.0625 36.042969 C 219.613281 36.386719 220.25 36.761719 220.65625 37.042969 L 220.78125 37.136719 C 221.039062 37.3125 221.390625 37.3125 221.648438 37.109375 C 221.957031 36.863281 222.011719 36.410156 221.761719 36.09375 C 221.199219 35.390625 220.691406 34.988281 220.125 34.53125 Z M 227.394531 52.730469 C 226.957031 52.121094 226.484375 51.542969 225.9375 51.046875 C 225.382812 50.550781 224.796875 50.144531 224.066406 49.832031 C 223.824219 49.726562 223.527344 49.757812 223.308594 49.9375 C 222.992188 50.195312 222.941406 50.660156 223.203125 50.976562 L 223.25 51.039062 C 223.640625 51.519531 224.089844 52.019531 224.511719 52.484375 C 224.9375 52.953125 225.363281 53.417969 225.734375 53.917969 C 226.113281 54.414062 226.4375 54.933594 226.726562 55.464844 C 227 56.011719 227.203125 56.570312 227.378906 57.167969 L 227.394531 57.230469 C 227.484375 57.535156 227.769531 57.757812 228.101562 57.753906 C 228.507812 57.75 228.832031 57.421875 228.828125 57.015625 C 228.820312 56.25 228.703125 55.46875 228.429688 54.75 C 228.171875 54.03125 227.820312 53.347656 227.394531 52.730469 Z M 232.441406 48.933594 C 232.066406 48.511719 231.589844 48.148438 231.070312 47.863281 C 230.53125 47.59375 229.945312 47.394531 229.339844 47.355469 C 228.71875 47.320312 228.15625 47.40625 227.535156 47.75 C 227.371094 47.839844 227.242188 47.996094 227.191406 48.191406 C 227.09375 48.570312 227.320312 48.960938 227.695312 49.0625 L 227.988281 49.132812 C 228.3125 49.21875 228.742188 49.277344 229.09375 49.359375 C 229.457031 49.441406 229.820312 49.53125 230.167969 49.691406 C 230.507812 49.851562 230.855469 50.042969 231.1875 50.289062 C 231.515625 50.539062 231.835938 50.832031 232.175781 51.132812 L 232.222656 51.175781 C 232.4375 51.375 232.765625 51.425781 233.039062 51.289062 C 233.40625 51.109375 233.554688 50.667969 233.375 50.304688 C 233.132812 49.816406 232.839844 49.34375 232.441406 48.933594 Z M 210.375 30.484375 C 210.179688 30.824219 209.757812 30.949219 209.410156 30.773438 L 209.371094 30.753906 C 206.742188 29.421875 203.871094 28.371094 201.023438 27.429688 C 198.171875 26.515625 195.210938 25.730469 192.324219 25.152344 C 189.453125 24.664062 186.492188 24.769531 183.613281 25.335938 C 180.757812 25.921875 177.890625 26.917969 175.347656 28.300781 L 175.300781 28.320312 C 174.949219 28.515625 174.503906 28.386719 174.3125 28.03125 C 174.132812 27.707031 174.238281 27.300781 174.535156 27.089844 C 175.867188 26.144531 177.238281 25.425781 178.699219 24.8125 C 180.148438 24.203125 181.652344 23.703125 183.203125 23.375 C 186.289062 22.679688 189.539062 22.601562 192.675781 23.171875 C 195.769531 23.800781 198.699219 24.636719 201.621094 25.683594 C 204.542969 26.714844 207.355469 27.933594 210.097656 29.492188 C 210.449219 29.6875 210.574219 30.132812 210.375 30.484375"/></g></svg>