<svg xmlns="http://www.w3.org/2000/svg" xmlns:xlink="http://www.w3.org/1999/xlink" width="375" viewBox="0 0 375 375" height="375" version="1.0"><defs><clipPath id="a"><path d="M 7.265625 92.464844 L 368.011719 92.464844 L 368.011719 282 L 7.265625 282 Z M 7.265625 92.464844"/></clipPath><clipPath id="b"><path d="M 368.011719 187.339844 C 368.011719 188.890625 367.941406 190.4375 367.796875 191.984375 C 367.652344 193.53125 367.433594 195.074219 367.144531 196.613281 C 366.855469 198.15625 366.496094 199.691406 366.0625 201.222656 C 365.628906 202.753906 365.125 204.28125 364.546875 205.796875 C 363.972656 207.316406 363.324219 208.828125 362.609375 210.328125 C 361.890625 211.832031 361.105469 213.324219 360.246094 214.804688 C 359.390625 216.285156 358.464844 217.753906 357.46875 219.214844 C 356.476562 220.671875 355.414062 222.113281 354.285156 223.546875 C 353.152344 224.976562 351.957031 226.390625 350.695312 227.789062 C 349.433594 229.191406 348.105469 230.574219 346.714844 231.9375 C 345.324219 233.304688 343.867188 234.652344 342.351562 235.980469 C 340.832031 237.304688 339.253906 238.613281 337.613281 239.902344 C 335.976562 241.1875 334.277344 242.453125 332.515625 243.699219 C 330.757812 244.941406 328.941406 246.160156 327.070312 247.359375 C 325.199219 248.554688 323.269531 249.726562 321.289062 250.875 C 319.304688 252.023438 317.269531 253.144531 315.183594 254.238281 C 313.09375 255.332031 310.957031 256.398438 308.769531 257.441406 C 306.582031 258.480469 304.347656 259.492188 302.066406 260.472656 C 299.785156 261.453125 297.457031 262.40625 295.085938 263.328125 C 292.71875 264.25 290.304688 265.144531 287.851562 266.003906 C 285.394531 266.863281 282.902344 267.691406 280.371094 268.488281 C 277.839844 269.285156 275.269531 270.046875 272.667969 270.777344 C 270.0625 271.507812 267.425781 272.203125 264.757812 272.863281 C 262.089844 273.527344 259.390625 274.152344 256.664062 274.746094 C 253.9375 275.339844 251.183594 275.894531 248.40625 276.417969 C 245.625 276.9375 242.824219 277.425781 240 277.875 C 237.175781 278.324219 234.328125 278.734375 231.464844 279.113281 C 228.601562 279.488281 225.722656 279.828125 222.828125 280.128906 C 219.933594 280.429688 217.023438 280.695312 214.105469 280.921875 C 211.183594 281.152344 208.257812 281.339844 205.320312 281.492188 C 202.378906 281.644531 199.4375 281.757812 196.488281 281.832031 C 193.539062 281.910156 190.589844 281.949219 187.636719 281.949219 C 184.6875 281.949219 181.738281 281.910156 178.789062 281.832031 C 175.839844 281.757812 172.898438 281.644531 169.957031 281.492188 C 167.019531 281.339844 164.09375 281.152344 161.171875 280.921875 C 158.253906 280.695312 155.34375 280.429688 152.449219 280.128906 C 149.554688 279.828125 146.675781 279.488281 143.8125 279.113281 C 140.949219 278.734375 138.101562 278.324219 135.277344 277.875 C 132.453125 277.425781 129.652344 276.9375 126.871094 276.417969 C 124.09375 275.894531 121.339844 275.339844 118.613281 274.746094 C 115.886719 274.152344 113.1875 273.527344 110.519531 272.863281 C 107.851562 272.203125 105.214844 271.507812 102.609375 270.777344 C 100.007812 270.046875 97.4375 269.285156 94.90625 268.488281 C 92.375 267.691406 89.882812 266.863281 87.425781 266.003906 C 84.972656 265.144531 82.558594 264.25 80.1875 263.328125 C 77.816406 262.40625 75.492188 261.453125 73.210938 260.472656 C 70.929688 259.492188 68.695312 258.480469 66.507812 257.441406 C 64.320312 256.398438 62.183594 255.332031 60.09375 254.238281 C 58.007812 253.144531 55.972656 252.023438 53.988281 250.875 C 52.007812 249.726562 50.078125 248.554688 48.207031 247.359375 C 46.335938 246.160156 44.519531 244.941406 42.761719 243.699219 C 41 242.453125 39.300781 241.1875 37.664062 239.902344 C 36.023438 238.613281 34.445312 237.304688 32.925781 235.980469 C 31.410156 234.652344 29.953125 233.304688 28.5625 231.9375 C 27.171875 230.574219 25.84375 229.191406 24.582031 227.789062 C 23.320312 226.390625 22.125 224.976562 20.992188 223.546875 C 19.863281 222.113281 18.800781 220.671875 17.808594 219.214844 C 16.8125 217.753906 15.886719 216.285156 15.03125 214.804688 C 14.171875 213.324219 13.386719 211.832031 12.667969 210.328125 C 11.953125 208.828125 11.304688 207.316406 10.730469 205.796875 C 10.152344 204.28125 9.648438 202.753906 9.214844 201.222656 C 8.78125 199.691406 8.421875 198.15625 8.132812 196.613281 C 7.84375 195.074219 7.625 193.53125 7.480469 191.984375 C 7.335938 190.4375 7.265625 188.890625 7.265625 187.339844 C 7.265625 185.792969 7.335938 184.246094 7.480469 182.699219 C 7.625 181.152344 7.84375 179.609375 8.132812 178.066406 C 8.421875 176.527344 8.78125 174.992188 9.214844 173.460938 C 9.648438 171.929688 10.152344 170.402344 10.730469 168.882812 C 11.304688 167.367188 11.953125 165.855469 12.667969 164.355469 C 13.386719 162.851562 14.171875 161.359375 15.03125 159.878906 C 15.886719 158.398438 16.8125 156.925781 17.808594 155.46875 C 18.800781 154.011719 19.863281 152.566406 20.992188 151.136719 C 22.125 149.707031 23.320312 148.292969 24.582031 146.890625 C 25.84375 145.492188 27.171875 144.109375 28.5625 142.746094 C 29.953125 141.378906 31.410156 140.03125 32.925781 138.703125 C 34.445312 137.375 36.023438 136.066406 37.664062 134.78125 C 39.300781 133.492188 41 132.226562 42.761719 130.984375 C 44.519531 129.742188 46.335938 128.519531 48.207031 127.324219 C 50.078125 126.128906 52.007812 124.953125 53.988281 123.808594 C 55.972656 122.660156 58.007812 121.539062 60.09375 120.445312 C 62.183594 119.351562 64.320312 118.28125 66.507812 117.242188 C 68.695312 116.203125 70.929688 115.191406 73.210938 114.210938 C 75.492188 113.226562 77.816406 112.273438 80.1875 111.351562 C 82.558594 110.429688 84.972656 109.539062 87.425781 108.679688 C 89.882812 107.820312 92.375 106.992188 94.90625 106.195312 C 97.4375 105.398438 100.007812 104.636719 102.609375 103.90625 C 105.214844 103.175781 107.851562 102.480469 110.519531 101.820312 C 113.1875 101.15625 115.886719 100.527344 118.613281 99.9375 C 121.339844 99.34375 124.09375 98.785156 126.871094 98.265625 C 129.652344 97.742188 132.453125 97.257812 135.277344 96.808594 C 138.101562 96.359375 140.949219 95.945312 143.8125 95.570312 C 146.675781 95.195312 149.554688 94.855469 152.449219 94.554688 C 155.34375 94.25 158.253906 93.988281 161.171875 93.757812 C 164.09375 93.53125 167.019531 93.34375 169.957031 93.191406 C 172.898438 93.039062 175.839844 92.925781 178.789062 92.847656 C 181.738281 92.773438 184.6875 92.734375 187.636719 92.734375 C 190.589844 92.734375 193.539062 92.773438 196.488281 92.847656 C 199.4375 92.925781 202.378906 93.039062 205.320312 93.191406 C 208.257812 93.34375 211.183594 93.53125 214.105469 93.757812 C 217.023438 93.988281 219.933594 94.25 222.828125 94.554688 C 225.722656 94.855469 228.601562 95.195312 231.464844 95.570312 C 234.328125 95.945312 237.175781 96.359375 240 96.808594 C 242.824219 97.257812 245.625 97.742188 248.40625 98.265625 C 251.183594 98.785156 253.9375 99.34375 256.664062 99.9375 C 259.390625 100.527344 262.089844 101.15625 264.757812 101.820312 C 267.425781 102.480469 270.0625 103.175781 272.667969 103.90625 C 275.269531 104.636719 277.839844 105.398438 280.371094 106.195312 C 282.902344 106.992188 285.394531 107.820312 287.851562 108.679688 C 290.304688 109.539062 292.71875 110.429688 295.085938 111.351562 C 297.457031 112.273438 299.785156 113.226562 302.066406 114.210938 C 304.347656 115.191406 306.582031 116.203125 308.769531 117.242188 C 310.957031 118.28125 313.09375 119.351562 315.183594 120.445312 C 317.269531 121.539062 319.304688 122.660156 321.289062 123.808594 C 323.269531 124.953125 325.199219 126.128906 327.070312 127.324219 C 328.941406 128.519531 330.757812 129.742188 332.515625 130.984375 C 334.277344 132.226562 335.976562 133.492188 337.613281 134.78125 C 339.253906 136.066406 340.832031 137.375 342.351562 138.703125 C 343.867188 140.03125 345.324219 141.378906 346.714844 142.746094 C 348.105469 144.109375 349.433594 145.492188 350.695312 146.890625 C 351.957031 148.292969 353.152344 149.707031 354.285156 151.136719 C 355.414062 152.566406 356.476562 154.011719 357.46875 155.46875 C 358.464844 156.925781 359.390625 158.398438 360.246094 159.878906 C 361.105469 161.359375 361.890625 162.851562 362.609375 164.355469 C 363.324219 165.855469 363.972656 167.367188 364.546875 168.882812 C 365.125 170.402344 365.628906 171.929688 366.0625 173.460938 C 366.496094 174.992188 366.855469 176.527344 367.144531 178.066406 C 367.433594 179.609375 367.652344 181.152344 367.796875 182.699219 C 367.941406 184.246094 368.011719 185.792969 368.011719 187.339844 Z M 368.011719 187.339844"/></clipPath><radialGradient gradientTransform="matrix(1.00122 0 0 .99878 115.015 207.89)" xmlns:xlink="http://www.w3.org/1999/xlink" gradientUnits="userSpaceOnUse" xlink:type="simple" r="236.589" xlink:actuate="onLoad" cx=".545" id="c" cy="-81.984" xlink:show="other" fx=".545" fy="-81.984"><stop stop-color="#FEFEFF" offset="0"/><stop stop-color="#FDFDFE" offset=".004"/><stop stop-color="#FCFCFD" offset=".008"/><stop stop-color="#FAFBFC" offset=".012"/><stop stop-color="#F9FAFB" offset=".016"/><stop stop-color="#F7F9FB" offset=".02"/><stop stop-color="#F6F7FA" offset=".023"/><stop stop-color="#F5F6F9" offset=".027"/><stop stop-color="#F3F5F8" offset=".031"/><stop stop-color="#F2F4F7" offset=".035"/><stop stop-color="#F0F3F6" offset=".039"/><stop stop-color="#EFF2F6" offset=".043"/><stop stop-color="#EEF1F5" offset=".047"/><stop stop-color="#ECEFF4" offset=".051"/><stop stop-color="#EBEEF3" offset=".055"/><stop stop-color="#E9EDF2" offset=".059"/><stop stop-color="#E8ECF2" offset=".063"/><stop stop-color="#E7EBF1" offset=".066"/><stop stop-color="#E5EAF0" offset=".07"/><stop stop-color="#E4E8EF" offset=".074"/><stop stop-color="#E2E7EE" offset=".078"/><stop stop-color="#E1E6EE" offset=".082"/><stop stop-color="#E0E5ED" offset=".086"/><stop stop-color="#DEE4EC" offset=".09"/><stop stop-color="#DDE3EB" offset=".094"/><stop stop-color="#DBE2EA" offset=".098"/><stop stop-color="#DAE0E9" offset=".102"/><stop stop-color="#D9DFE9" offset=".105"/><stop stop-color="#D7DEE8" offset=".109"/><stop stop-color="#D6DDE7" offset=".113"/><stop stop-color="#D4DCE6" offset=".117"/><stop stop-color="#D3DBE5" offset=".121"/><stop stop-color="#D2D9E5" offset=".125"/><stop stop-color="#D0D8E4" offset=".129"/><stop stop-color="#CFD7E3" offset=".133"/><stop stop-color="#CDD6E2" offset=".137"/><stop stop-color="#CCD5E1" offset=".141"/><stop stop-color="#CBD4E1" offset=".145"/><stop stop-color="#C9D3E0" offset=".148"/><stop stop-color="#C8D1DF" offset=".152"/><stop stop-color="#C6D0DE" offset=".156"/><stop stop-color="#C5CFDD" offset=".16"/><stop stop-color="#C4CEDC" offset=".164"/><stop stop-color="#C2CDDC" offset=".168"/><stop stop-color="#C1CCDB" offset=".172"/><stop stop-color="#BFCADA" offset=".176"/><stop stop-color="#BEC9D9" offset=".18"/><stop stop-color="#BDC8D8" offset=".184"/><stop stop-color="#BBC7D8" offset=".188"/><stop stop-color="#BAC6D7" offset=".191"/><stop stop-color="#B8C5D6" offset=".195"/><stop stop-color="#B7C3D5" offset=".199"/><stop stop-color="#B6C2D4" offset=".203"/><stop stop-color="#B4C1D4" offset=".207"/><stop stop-color="#B3C0D3" offset=".211"/><stop stop-color="#B1BFD2" offset=".215"/><stop stop-color="#B0BED1" offset=".219"/><stop stop-color="#AFBDD0" offset=".223"/><stop stop-color="#ADBBCF" offset=".227"/><stop stop-color="#ACBACF" offset=".23"/><stop stop-color="#AAB9CE" offset=".234"/><stop stop-color="#A9B8CD" offset=".238"/><stop stop-color="#A8B7CC" offset=".242"/><stop stop-color="#A6B6CB" offset=".246"/><stop stop-color="#A5B4CB" offset=".25"/><stop stop-color="#A3B3CA" offset=".254"/><stop stop-color="#A2B2C9" offset=".258"/><stop stop-color="#A1B1C8" offset=".262"/><stop stop-color="#9FB0C7" offset=".266"/><stop stop-color="#9EAFC7" offset=".27"/><stop stop-color="#9CAEC6" offset=".273"/><stop stop-color="#9BACC5" offset=".277"/><stop stop-color="#9AABC4" offset=".281"/><stop stop-color="#98AAC3" offset=".285"/><stop stop-color="#97A9C2" offset=".289"/><stop stop-color="#95A8C2" offset=".293"/><stop stop-color="#94A7C1" offset=".297"/><stop stop-color="#93A5C0" offset=".301"/><stop stop-color="#91A4BF" offset=".305"/><stop stop-color="#90A3BE" offset=".309"/><stop stop-color="#8EA2BE" offset=".313"/><stop stop-color="#8DA1BD" offset=".316"/><stop stop-color="#8CA0BC" offset=".32"/><stop stop-color="#8A9FBB" offset=".324"/><stop stop-color="#899DBA" offset=".328"/><stop stop-color="#879CB9" offset=".332"/><stop stop-color="#869BB9" offset=".336"/><stop stop-color="#859AB8" offset=".34"/><stop stop-color="#8399B7" offset=".344"/><stop stop-color="#8298B6" offset=".348"/><stop stop-color="#8096B5" offset=".352"/><stop stop-color="#7F95B5" offset=".355"/><stop stop-color="#7E94B4" offset=".359"/><stop stop-color="#7C93B3" offset=".363"/><stop stop-color="#7B92B2" offset=".367"/><stop stop-color="#7991B1" offset=".371"/><stop stop-color="#788FB1" offset=".375"/><stop stop-color="#778EB0" offset=".379"/><stop stop-color="#758DAF" offset=".383"/><stop stop-color="#748CAE" offset=".387"/><stop stop-color="#728BAD" offset=".391"/><stop stop-color="#718AAC" offset=".395"/><stop stop-color="#7089AC" offset=".398"/><stop stop-color="#6E87AB" offset=".402"/><stop stop-color="#6D86AA" offset=".406"/><stop stop-color="#6B85A9" offset=".41"/><stop stop-color="#6A84A8" offset=".414"/><stop stop-color="#6983A8" offset=".418"/><stop stop-color="#6782A7" offset=".422"/><stop stop-color="#6680A6" offset=".426"/><stop stop-color="#647FA5" offset=".43"/><stop stop-color="#637EA4" offset=".434"/><stop stop-color="#627DA4" offset=".438"/><stop stop-color="#607CA3" offset=".441"/><stop stop-color="#5F7BA2" offset=".445"/><stop stop-color="#5D7AA1" offset=".449"/><stop stop-color="#5C78A0" offset=".453"/><stop stop-color="#5B779F" offset=".457"/><stop stop-color="#59769F" offset=".461"/><stop stop-color="#58759E" offset=".465"/><stop stop-color="#56749D" offset=".469"/><stop stop-color="#55739C" offset=".473"/><stop stop-color="#54719B" offset=".477"/><stop stop-color="#52709B" offset=".48"/><stop stop-color="#516F9A" offset=".484"/><stop stop-color="#4F6E99" offset=".488"/><stop stop-color="#4E6D98" offset=".492"/><stop stop-color="#4D6C97" offset=".496"/><stop stop-color="#4C6B96" offset=".5"/><stop stop-color="#4C6A96" offset=".504"/><stop stop-color="#4B6A95" offset=".508"/><stop stop-color="#4B6994" offset=".512"/><stop stop-color="#4B6893" offset=".516"/><stop stop-color="#4A6892" offset=".52"/><stop stop-color="#4A6791" offset=".523"/><stop stop-color="#4A6790" offset=".527"/><stop stop-color="#49668F" offset=".531"/><stop stop-color="#49658E" offset=".535"/><stop stop-color="#49658D" offset=".539"/><stop stop-color="#48648C" offset=".543"/><stop stop-color="#48648B" offset=".547"/><stop stop-color="#48638A" offset=".551"/><stop stop-color="#476289" offset=".555"/><stop stop-color="#476289" offset=".559"/><stop stop-color="#476188" offset=".563"/><stop stop-color="#466187" offset=".566"/><stop stop-color="#466086" offset=".57"/><stop stop-color="#466085" offset=".574"/><stop stop-color="#455F84" offset=".578"/><stop stop-color="#455E83" offset=".582"/><stop stop-color="#455E82" offset=".586"/><stop stop-color="#445D81" offset=".59"/><stop stop-color="#445D80" offset=".594"/><stop stop-color="#445C7F" offset=".598"/><stop stop-color="#435B7E" offset=".602"/><stop stop-color="#435B7D" offset=".605"/><stop stop-color="#435A7C" offset=".609"/><stop stop-color="#435A7C" offset=".613"/><stop stop-color="#42597B" offset=".617"/><stop stop-color="#42587A" offset=".621"/><stop stop-color="#425879" offset=".625"/><stop stop-color="#415778" offset=".629"/><stop stop-color="#415777" offset=".633"/><stop stop-color="#415676" offset=".637"/><stop stop-color="#405575" offset=".641"/><stop stop-color="#405574" offset=".645"/><stop stop-color="#405473" offset=".648"/><stop stop-color="#3F5472" offset=".652"/><stop stop-color="#3F5371" offset=".656"/><stop stop-color="#3F5270" offset=".66"/><stop stop-color="#3E526F" offset=".664"/><stop stop-color="#3E516E" offset=".668"/><stop stop-color="#3E516E" offset=".672"/><stop stop-color="#3D506D" offset=".676"/><stop stop-color="#3D4F6C" offset=".68"/><stop stop-color="#3D4F6B" offset=".684"/><stop stop-color="#3C4E6A" offset=".688"/><stop stop-color="#3C4E69" offset=".691"/><stop stop-color="#3C4D68" offset=".695"/><stop stop-color="#3B4D67" offset=".699"/><stop stop-color="#3B4C66" offset=".703"/><stop stop-color="#3B4B65" offset=".707"/><stop stop-color="#3B4B64" offset=".711"/><stop stop-color="#3A4A63" offset=".715"/><stop stop-color="#3A4A62" offset=".719"/><stop stop-color="#3A4961" offset=".723"/><stop stop-color="#394861" offset=".727"/><stop stop-color="#394860" offset=".73"/><stop stop-color="#39475F" offset=".734"/><stop stop-color="#38475E" offset=".738"/><stop stop-color="#38465D" offset=".742"/><stop stop-color="#38455C" offset=".746"/><stop stop-color="#37455B" offset=".75"/><stop stop-color="#37445A" offset=".754"/><stop stop-color="#374459" offset=".758"/><stop stop-color="#364358" offset=".762"/><stop stop-color="#364257" offset=".766"/><stop stop-color="#364256" offset=".77"/><stop stop-color="#354155" offset=".773"/><stop stop-color="#354154" offset=".777"/><stop stop-color="#354054" offset=".781"/><stop stop-color="#343F53" offset=".785"/><stop stop-color="#343F52" offset=".789"/><stop stop-color="#343E51" offset=".793"/><stop stop-color="#333E50" offset=".797"/><stop stop-color="#333D4F" offset=".801"/><stop stop-color="#333C4E" offset=".805"/><stop stop-color="#323C4D" offset=".809"/><stop stop-color="#323B4C" offset=".813"/><stop stop-color="#323B4B" offset=".816"/><stop stop-color="#323A4A" offset=".82"/><stop stop-color="#313A49" offset=".824"/><stop stop-color="#313948" offset=".828"/><stop stop-color="#313847" offset=".832"/><stop stop-color="#303846" offset=".836"/><stop stop-color="#303746" offset=".84"/><stop stop-color="#303745" offset=".844"/><stop stop-color="#2F3644" offset=".848"/><stop stop-color="#2F3543" offset=".852"/><stop stop-color="#2F3542" offset=".855"/><stop stop-color="#2E3441" offset=".859"/><stop stop-color="#2E3440" offset=".863"/><stop stop-color="#2E333F" offset=".867"/><stop stop-color="#2D323E" offset=".871"/><stop stop-color="#2D323D" offset=".875"/><stop stop-color="#2D313C" offset=".879"/><stop stop-color="#2C313B" offset=".883"/><stop stop-color="#2C303A" offset=".887"/><stop stop-color="#2C2F39" offset=".891"/><stop stop-color="#2B2F39" offset=".895"/><stop stop-color="#2B2E38" offset=".898"/><stop stop-color="#2B2E37" offset=".902"/><stop stop-color="#2A2D36" offset=".906"/><stop stop-color="#2A2C35" offset=".91"/><stop stop-color="#2A2C34" offset=".914"/><stop stop-color="#2A2B33" offset=".918"/><stop stop-color="#292B32" offset=".922"/><stop stop-color="#292A31" offset=".926"/><stop stop-color="#292930" offset=".93"/><stop stop-color="#28292F" offset=".934"/><stop stop-color="#28282E" offset=".938"/><stop stop-color="#28282D" offset=".941"/><stop stop-color="#27272C" offset=".945"/><stop stop-color="#27272C" offset=".949"/><stop stop-color="#27262B" offset=".953"/><stop stop-color="#26252A" offset=".957"/><stop stop-color="#262529" offset=".961"/><stop stop-color="#262428" offset=".965"/><stop stop-color="#252427" offset=".969"/><stop stop-color="#252326" offset=".973"/><stop stop-color="#252225" offset=".977"/><stop stop-color="#242224" offset=".98"/><stop stop-color="#242123" offset=".984"/><stop stop-color="#242122" offset=".988"/><stop stop-color="#232021" offset=".992"/><stop stop-color="#231F20" offset=".996"/><stop stop-color="#231F20" offset="1"/></radialGradient></defs><g clip-path="url(#a)"><g clip-path="url(#b)"><path fill="url(#c)" d="M 7.265625 92.734375 L 7.265625 281.949219 L 368.011719 281.949219 L 368.011719 92.734375 Z M 7.265625 92.734375"/></g></g><path fill="#6181B6" d="M 360.96875 187.339844 C 360.96875 188.773438 360.898438 190.207031 360.757812 191.636719 C 360.621094 193.070312 360.410156 194.5 360.132812 195.925781 C 359.855469 197.351562 359.507812 198.773438 359.089844 200.191406 C 358.675781 201.609375 358.191406 203.019531 357.636719 204.425781 C 357.082031 205.832031 356.460938 207.230469 355.773438 208.621094 C 355.085938 210.011719 354.328125 211.390625 353.503906 212.761719 C 352.679688 214.136719 351.792969 215.496094 350.835938 216.84375 C 349.878906 218.195312 348.859375 219.53125 347.773438 220.855469 C 346.6875 222.179688 345.539062 223.488281 344.328125 224.785156 C 343.113281 226.082031 341.839844 227.359375 340.5 228.625 C 339.164062 229.890625 337.765625 231.136719 336.308594 232.363281 C 334.847656 233.59375 333.332031 234.804688 331.757812 235.996094 C 330.179688 237.1875 328.546875 238.359375 326.859375 239.511719 C 325.167969 240.664062 323.421875 241.792969 321.625 242.898438 C 319.824219 244.007812 317.972656 245.09375 316.066406 246.15625 C 314.160156 247.214844 312.207031 248.253906 310.199219 249.269531 C 308.195312 250.28125 306.140625 251.269531 304.039062 252.230469 C 301.9375 253.195312 299.789062 254.128906 297.597656 255.039062 C 295.40625 255.949219 293.167969 256.832031 290.890625 257.683594 C 288.613281 258.539062 286.292969 259.363281 283.933594 260.160156 C 281.578125 260.957031 279.179688 261.722656 276.746094 262.457031 C 274.316406 263.195312 271.847656 263.902344 269.34375 264.578125 C 266.84375 265.253906 264.3125 265.898438 261.746094 266.511719 C 259.183594 267.125 256.589844 267.703125 253.96875 268.253906 C 251.347656 268.800781 248.703125 269.316406 246.03125 269.800781 C 243.359375 270.28125 240.667969 270.730469 237.953125 271.148438 C 235.238281 271.5625 232.503906 271.945312 229.753906 272.292969 C 227.003906 272.640625 224.234375 272.957031 221.453125 273.234375 C 218.671875 273.515625 215.878906 273.761719 213.070312 273.972656 C 210.265625 274.179688 207.449219 274.355469 204.628906 274.496094 C 201.804688 274.636719 198.976562 274.742188 196.144531 274.8125 C 193.308594 274.882812 190.476562 274.917969 187.636719 274.917969 C 184.800781 274.917969 181.96875 274.882812 179.132812 274.8125 C 176.300781 274.742188 173.472656 274.636719 170.648438 274.496094 C 167.828125 274.355469 165.011719 274.179688 162.207031 273.972656 C 159.398438 273.761719 156.605469 273.515625 153.824219 273.234375 C 151.042969 272.957031 148.273438 272.640625 145.523438 272.292969 C 142.769531 271.945312 140.039062 271.5625 137.324219 271.148438 C 134.609375 270.730469 131.917969 270.28125 129.246094 269.800781 C 126.574219 269.316406 123.929688 268.800781 121.308594 268.253906 C 118.6875 267.703125 116.09375 267.125 113.53125 266.511719 C 110.964844 265.898438 108.433594 265.253906 105.933594 264.578125 C 103.429688 263.902344 100.960938 263.195312 98.53125 262.457031 C 96.097656 261.722656 93.699219 260.957031 91.34375 260.160156 C 88.984375 259.363281 86.664062 258.539062 84.386719 257.683594 C 82.109375 256.832031 79.871094 255.949219 77.679688 255.039062 C 75.488281 254.128906 73.339844 253.195312 71.238281 252.230469 C 69.136719 251.269531 67.082031 250.28125 65.078125 249.269531 C 63.070312 248.253906 61.117188 247.214844 59.210938 246.15625 C 57.304688 245.09375 55.453125 244.007812 53.652344 242.898438 C 51.855469 241.792969 50.109375 240.664062 48.417969 239.511719 C 46.730469 238.359375 45.097656 237.1875 43.519531 235.996094 C 41.945312 234.804688 40.425781 233.59375 38.96875 232.363281 C 37.511719 231.136719 36.113281 229.890625 34.777344 228.625 C 33.4375 227.359375 32.164062 226.082031 30.949219 224.785156 C 29.738281 223.488281 28.589844 222.179688 27.503906 220.855469 C 26.417969 219.53125 25.398438 218.195312 24.441406 216.84375 C 23.484375 215.496094 22.597656 214.136719 21.773438 212.761719 C 20.949219 211.390625 20.191406 210.011719 19.503906 208.621094 C 18.816406 207.230469 18.195312 205.832031 17.640625 204.425781 C 17.085938 203.019531 16.601562 201.609375 16.1875 200.191406 C 15.769531 198.773438 15.421875 197.351562 15.144531 195.925781 C 14.867188 194.5 14.65625 193.070312 14.519531 191.636719 C 14.378906 190.207031 14.308594 188.773438 14.308594 187.339844 C 14.308594 185.90625 14.378906 184.476562 14.519531 183.042969 C 14.65625 181.613281 14.867188 180.183594 15.144531 178.757812 C 15.421875 177.332031 15.769531 175.910156 16.1875 174.492188 C 16.601562 173.074219 17.085938 171.660156 17.640625 170.253906 C 18.195312 168.851562 18.816406 167.453125 19.503906 166.0625 C 20.191406 164.671875 20.949219 163.289062 21.773438 161.917969 C 22.597656 160.546875 23.484375 159.1875 24.441406 157.835938 C 25.398438 156.488281 26.417969 155.152344 27.503906 153.828125 C 28.589844 152.503906 29.738281 151.191406 30.949219 149.898438 C 32.164062 148.601562 33.4375 147.320312 34.777344 146.058594 C 36.113281 144.792969 37.511719 143.546875 38.96875 142.316406 C 40.425781 141.089844 41.945312 139.878906 43.519531 138.6875 C 45.097656 137.496094 46.730469 136.324219 48.417969 135.171875 C 50.109375 134.019531 51.855469 132.890625 53.652344 131.78125 C 55.453125 130.675781 57.304688 129.589844 59.210938 128.527344 C 61.117188 127.464844 63.070312 126.429688 65.078125 125.414062 C 67.082031 124.402344 69.136719 123.414062 71.238281 122.449219 C 73.339844 121.488281 75.488281 120.550781 77.679688 119.644531 C 79.871094 118.734375 82.109375 117.851562 84.386719 117 C 86.664062 116.144531 88.984375 115.320312 91.34375 114.523438 C 93.699219 113.726562 96.097656 112.960938 98.53125 112.222656 C 100.960938 111.488281 103.429688 110.78125 105.933594 110.105469 C 108.433594 109.429688 110.964844 108.785156 113.53125 108.171875 C 116.09375 107.558594 118.6875 106.980469 121.308594 106.429688 C 123.929688 105.882812 126.574219 105.367188 129.246094 104.882812 C 131.917969 104.402344 134.609375 103.949219 137.324219 103.535156 C 140.039062 103.117188 142.769531 102.738281 145.523438 102.386719 C 148.273438 102.039062 151.042969 101.726562 153.824219 101.445312 C 156.605469 101.167969 159.398438 100.921875 162.207031 100.710938 C 165.011719 100.5 167.828125 100.324219 170.648438 100.1875 C 173.472656 100.046875 176.300781 99.941406 179.132812 99.871094 C 181.96875 99.800781 184.800781 99.765625 187.636719 99.765625 C 190.476562 99.765625 193.308594 99.800781 196.144531 99.871094 C 198.976562 99.941406 201.804688 100.046875 204.628906 100.1875 C 207.449219 100.324219 210.265625 100.5 213.070312 100.710938 C 215.878906 100.921875 218.671875 101.167969 221.453125 101.445312 C 224.234375 101.726562 227.003906 102.039062 229.753906 102.386719 C 232.503906 102.738281 235.238281 103.117188 237.953125 103.535156 C 240.667969 103.949219 243.359375 104.402344 246.03125 104.882812 C 248.703125 105.367188 251.347656 105.882812 253.96875 106.429688 C 256.589844 106.980469 259.183594 107.558594 261.746094 108.171875 C 264.3125 108.785156 266.84375 109.429688 269.34375 110.105469 C 271.847656 110.78125 274.316406 111.488281 276.746094 112.222656 C 279.179688 112.960938 281.578125 113.726562 283.933594 114.523438 C 286.292969 115.320312 288.613281 116.144531 290.890625 117 C 293.167969 117.851562 295.40625 118.734375 297.597656 119.644531 C 299.789062 120.550781 301.9375 121.488281 304.039062 122.449219 C 306.140625 123.414062 308.195312 124.402344 310.199219 125.414062 C 312.207031 126.429688 314.160156 127.464844 316.066406 128.527344 C 317.972656 129.589844 319.824219 130.675781 321.625 131.78125 C 323.421875 132.890625 325.167969 134.019531 326.859375 135.171875 C 328.546875 136.324219 330.179688 137.496094 331.757812 138.6875 C 333.332031 139.878906 334.847656 141.089844 336.308594 142.316406 C 337.765625 143.546875 339.164062 144.792969 340.5 146.058594 C 341.839844 147.320312 343.113281 148.601562 344.328125 149.898438 C 345.539062 151.191406 346.6875 152.503906 347.773438 153.828125 C 348.859375 155.152344 349.878906 156.488281 350.835938 157.835938 C 351.792969 159.1875 352.679688 160.546875 353.503906 161.917969 C 354.328125 163.289062 355.085938 164.671875 355.773438 166.0625 C 356.460938 167.453125 357.082031 168.851562 357.636719 170.253906 C 358.191406 171.660156 358.675781 173.074219 359.089844 174.492188 C 359.507812 175.910156 359.855469 177.332031 360.132812 178.757812 C 360.410156 180.183594 360.621094 181.613281 360.757812 183.042969 C 360.898438 184.476562 360.96875 185.90625 360.96875 187.339844 Z M 360.96875 187.339844"/><path fill="#FFF" d="M 222.726562 215.738281 L 231.324219 171.597656 C 233.296875 161.617188 231.605469 154.164062 226.53125 149.527344 C 221.601562 145.027344 213.144531 142.78125 200.742188 142.78125 L 185.808594 142.78125 L 190.035156 120.851562 C 190.175781 120.007812 190.035156 119.164062 189.46875 118.460938 C 188.90625 117.757812 188.203125 117.476562 187.355469 117.476562 L 166.78125 117.476562 C 165.375 117.476562 164.246094 118.460938 163.964844 119.726562 L 154.804688 166.535156 C 153.960938 161.195312 151.988281 156.695312 148.605469 153.042969 C 142.546875 146.152344 133.101562 142.640625 120.28125 142.640625 L 80.683594 142.640625 C 79.273438 142.640625 78.144531 143.621094 77.863281 144.886719 L 59.402344 239.914062 C 59.261719 240.757812 59.402344 241.601562 59.96875 242.304688 C 60.53125 243.007812 61.234375 243.289062 62.082031 243.289062 L 82.796875 243.289062 C 84.203125 243.289062 85.332031 242.304688 85.613281 241.039062 L 90.125 218.125 L 105.484375 218.125 C 113.515625 218.125 120.421875 217.285156 125.636719 215.597656 C 131.128906 213.769531 136.0625 210.816406 140.429688 206.742188 C 143.953125 203.507812 146.914062 199.851562 149.167969 195.917969 L 145.503906 214.894531 C 145.363281 215.738281 145.503906 216.582031 146.066406 217.285156 C 146.632812 217.984375 147.335938 218.265625 148.183594 218.265625 L 168.753906 218.265625 C 170.164062 218.265625 171.292969 217.285156 171.574219 216.019531 L 181.71875 164.007812 L 195.8125 164.007812 C 201.871094 164.007812 203.5625 165.128906 204.125 165.691406 C 204.550781 166.113281 205.394531 167.800781 204.40625 173.003906 L 196.234375 215.035156 C 196.09375 215.878906 196.234375 216.722656 196.796875 217.425781 C 197.363281 218.125 198.066406 218.40625 198.910156 218.40625 L 220.050781 218.40625 C 221.316406 217.984375 222.445312 217.003906 222.726562 215.738281 Z M 127.464844 179.1875 C 126.199219 185.796875 123.804688 190.574219 120.28125 193.246094 C 116.757812 195.917969 110.980469 197.320312 103.371094 197.320312 L 94.210938 197.320312 L 100.832031 163.304688 L 112.671875 163.304688 C 121.40625 163.304688 124.929688 165.128906 126.339844 166.675781 C 128.171875 168.925781 128.59375 173.285156 127.464844 179.1875 Z M 127.464844 179.1875"/><path fill="#FFF" d="M 310.660156 153.042969 C 304.601562 146.152344 295.160156 142.640625 282.335938 142.640625 L 242.457031 142.640625 C 241.046875 142.640625 239.917969 143.621094 239.636719 144.886719 L 221.175781 239.773438 C 221.035156 240.617188 221.175781 241.460938 221.742188 242.164062 C 222.304688 242.867188 223.007812 243.148438 223.855469 243.148438 L 244.570312 243.148438 C 245.980469 243.148438 247.105469 242.164062 247.386719 240.898438 L 251.898438 217.988281 L 267.257812 217.988281 C 275.289062 217.988281 282.195312 217.144531 287.410156 215.457031 C 292.90625 213.628906 297.835938 210.675781 302.203125 206.601562 C 305.867188 203.226562 308.96875 199.429688 311.222656 195.355469 C 313.476562 191.277344 315.167969 186.777344 316.15625 181.859375 C 318.550781 169.628906 316.71875 160.070312 310.660156 153.042969 Z M 289.097656 179.1875 C 287.832031 185.796875 285.4375 190.574219 281.914062 193.246094 C 278.390625 195.917969 272.613281 197.320312 265.003906 197.320312 L 255.84375 197.320312 L 262.464844 163.304688 L 274.304688 163.304688 C 283.039062 163.304688 286.5625 165.128906 287.972656 166.675781 C 289.945312 168.925781 290.367188 173.285156 289.097656 179.1875 Z M 289.097656 179.1875"/><path fill="#000004" d="M 112.671875 160.492188 C 120.5625 160.492188 125.777344 161.898438 128.453125 164.847656 C 131.128906 167.800781 131.695312 172.722656 130.285156 179.75 C 128.875 187.058594 126.058594 192.402344 121.972656 195.496094 C 117.882812 198.585938 111.683594 200.132812 103.371094 200.132812 L 90.828125 200.132812 L 98.578125 160.492188 Z M 62.222656 240.335938 L 82.9375 240.335938 L 87.867188 215.175781 L 105.625 215.175781 C 113.515625 215.175781 119.855469 214.332031 124.929688 212.644531 C 130.003906 210.957031 134.511719 208.285156 138.738281 204.351562 C 142.261719 201.117188 145.082031 197.601562 147.195312 193.808594 C 149.308594 190.011719 150.859375 185.796875 151.703125 181.15625 C 153.960938 169.910156 152.269531 161.195312 146.773438 154.867188 C 141.277344 148.542969 132.539062 145.449219 120.5625 145.449219 L 80.683594 145.449219 Z M 62.222656 240.335938"/><path fill="#000004" d="M 166.921875 120.289062 L 187.496094 120.289062 L 182.566406 145.449219 L 200.886719 145.449219 C 212.441406 145.449219 220.332031 147.417969 224.699219 151.496094 C 229.070312 155.570312 230.335938 162.039062 228.644531 171.035156 L 220.050781 215.175781 L 199.195312 215.175781 L 207.367188 173.144531 C 208.355469 168.363281 207.929688 165.128906 206.378906 163.445312 C 204.832031 161.757812 201.308594 160.773438 196.09375 160.773438 L 179.605469 160.773438 L 169.039062 215.175781 L 148.464844 215.175781 Z M 166.921875 120.289062"/><path fill="#000004" d="M 274.304688 160.492188 C 282.195312 160.492188 287.410156 161.898438 290.085938 164.847656 C 292.761719 167.800781 293.328125 172.722656 291.917969 179.75 C 290.507812 187.058594 287.691406 192.402344 283.605469 195.496094 C 279.515625 198.585938 273.316406 200.132812 265.003906 200.132812 L 252.460938 200.132812 L 260.210938 160.492188 Z M 223.855469 240.335938 L 244.570312 240.335938 L 249.5 215.175781 L 267.257812 215.175781 C 275.148438 215.175781 281.488281 214.332031 286.5625 212.644531 C 291.636719 210.957031 296.144531 208.285156 300.371094 204.351562 C 303.894531 201.117188 306.714844 197.601562 308.828125 193.808594 C 310.941406 190.011719 312.492188 185.796875 313.335938 181.15625 C 315.59375 169.910156 313.902344 161.195312 308.40625 154.867188 C 302.910156 148.542969 294.171875 145.449219 282.195312 145.449219 L 242.316406 145.449219 Z M 223.855469 240.335938"/></svg>