<svg xmlns="http://www.w3.org/2000/svg" width="375" viewBox="0 0 375 375" height="375" version="1.0"><defs><clipPath id="a"><path d="M 37.5 52 L 340.5 52 L 340.5 322 L 37.5 322 Z M 37.5 52"/></clipPath></defs><g clip-path="url(#a)"><path fill="#00D8FF" d="M 286.421875 140.035156 C 283.292969 138.953125 280.042969 137.933594 276.691406 136.964844 C 277.246094 134.71875 277.753906 132.503906 278.203125 130.324219 C 285.558594 94.546875 280.753906 65.722656 264.300781 56.230469 C 248.519531 47.132812 222.722656 56.621094 196.664062 79.300781 C 194.160156 81.484375 191.644531 83.792969 189.140625 86.210938 C 187.464844 84.609375 185.800781 83.0625 184.132812 81.582031 C 156.824219 57.332031 129.453125 47.109375 113.019531 56.628906 C 97.257812 65.753906 92.59375 92.851562 99.226562 126.757812 C 99.867188 130.035156 100.613281 133.378906 101.460938 136.777344 C 97.585938 137.878906 93.847656 139.050781 90.269531 140.296875 C 58.253906 151.464844 37.8125 168.960938 37.8125 187.113281 C 37.8125 205.851562 59.757812 224.664062 93.105469 236.066406 C 95.734375 236.964844 98.464844 237.8125 101.277344 238.617188 C 100.367188 242.292969 99.570312 245.894531 98.90625 249.417969 C 92.582031 282.738281 97.519531 309.191406 113.238281 318.253906 C 129.46875 327.625 156.71875 317.996094 183.246094 294.800781 C 185.351562 292.96875 187.453125 291.019531 189.554688 288.988281 C 192.296875 291.609375 195.023438 294.101562 197.730469 296.441406 C 223.429688 318.5625 248.8125 327.492188 264.511719 318.40625 C 280.730469 309.015625 286.007812 280.585938 279.15625 246.015625 C 278.636719 243.367188 278.023438 240.671875 277.351562 237.933594 C 279.265625 237.367188 281.140625 236.773438 282.972656 236.171875 C 317.640625 224.675781 340.1875 206.113281 340.1875 187.113281 C 340.1875 168.894531 319.082031 151.28125 286.421875 140.035156 Z M 278.910156 223.90625 C 277.257812 224.449219 275.554688 224.984375 273.832031 225.492188 C 270.003906 213.378906 264.84375 200.488281 258.511719 187.171875 C 264.546875 174.175781 269.507812 161.457031 273.230469 149.414062 C 276.324219 150.3125 279.324219 151.253906 282.21875 152.25 C 310.199219 161.886719 327.265625 176.136719 327.265625 187.113281 C 327.265625 198.800781 308.839844 213.984375 278.910156 223.90625 Z M 266.484375 248.519531 C 269.519531 263.808594 269.945312 277.632812 267.9375 288.445312 C 266.140625 298.15625 262.515625 304.632812 258.039062 307.21875 C 248.507812 312.738281 228.132812 305.5625 206.164062 286.648438 C 203.632812 284.472656 201.09375 282.15625 198.554688 279.710938 C 207.070312 270.390625 215.589844 259.554688 223.902344 247.515625 C 238.515625 246.226562 252.320312 244.101562 264.855469 241.207031 C 265.46875 243.699219 266.011719 246.132812 266.484375 248.519531 Z M 140.902344 306.261719 C 131.59375 309.558594 124.179688 309.652344 119.695312 307.066406 C 110.15625 301.558594 106.191406 280.316406 111.601562 251.828125 C 112.222656 248.566406 112.957031 245.210938 113.808594 241.785156 C 126.195312 244.527344 139.902344 246.5 154.554688 247.679688 C 162.925781 259.460938 171.6875 270.285156 180.511719 279.757812 C 178.585938 281.625 176.660156 283.398438 174.75 285.066406 C 163.019531 295.332031 151.265625 302.609375 140.902344 306.261719 Z M 97.285156 223.835938 C 82.542969 218.792969 70.363281 212.246094 62.019531 205.085938 C 54.519531 198.667969 50.734375 192.289062 50.734375 187.113281 C 50.734375 176.101562 67.148438 162.046875 94.527344 152.5 C 97.847656 151.339844 101.324219 150.25 104.933594 149.222656 C 108.71875 161.535156 113.683594 174.414062 119.671875 187.421875 C 113.605469 200.632812 108.570312 213.710938 104.75 226.175781 C 102.175781 225.433594 99.683594 224.652344 97.285156 223.835938 Z M 111.90625 124.277344 C 106.222656 95.226562 109.996094 73.3125 119.496094 67.808594 C 129.609375 61.953125 151.980469 70.304688 175.550781 91.246094 C 177.0625 92.585938 178.574219 93.984375 180.097656 95.433594 C 171.3125 104.871094 162.628906 115.613281 154.335938 127.324219 C 140.113281 128.640625 126.5 130.757812 113.984375 133.59375 C 113.199219 130.429688 112.503906 127.316406 111.90625 124.277344 Z M 242.332031 156.496094 C 239.34375 151.324219 236.269531 146.277344 233.140625 141.367188 C 242.792969 142.585938 252.027344 144.207031 260.710938 146.1875 C 258.109375 154.542969 254.863281 163.277344 251.035156 172.238281 C 248.296875 167.023438 245.390625 161.773438 242.332031 156.496094 Z M 189.144531 104.671875 C 195.109375 111.128906 201.074219 118.335938 206.941406 126.15625 C 201.027344 125.878906 195.035156 125.734375 189 125.734375 C 183.023438 125.734375 177.082031 125.875 171.199219 126.152344 C 177.070312 118.402344 183.09375 111.203125 189.144531 104.671875 Z M 135.613281 156.582031 C 132.625 161.765625 129.777344 166.992188 127.078125 172.226562 C 123.316406 163.300781 120.097656 154.527344 117.472656 146.050781 C 126.097656 144.121094 135.296875 142.542969 144.882812 141.34375 C 141.707031 146.300781 138.613281 151.382812 135.613281 156.582031 Z M 145.160156 233.796875 C 135.257812 232.699219 125.917969 231.199219 117.292969 229.320312 C 119.964844 220.695312 123.25 211.738281 127.09375 202.617188 C 129.800781 207.851562 132.660156 213.074219 135.664062 218.273438 L 135.667969 218.273438 C 138.730469 223.566406 141.902344 228.738281 145.160156 233.796875 Z M 189.496094 270.460938 C 183.378906 263.855469 177.273438 256.542969 171.308594 248.683594 C 177.09375 248.910156 183 249.027344 189 249.027344 C 195.167969 249.027344 201.261719 248.886719 207.25 248.625 C 201.367188 256.625 195.414062 263.949219 189.496094 270.460938 Z M 251.152344 202.15625 C 255.195312 211.371094 258.605469 220.28125 261.3125 228.761719 C 252.546875 230.761719 243.074219 232.367188 233.105469 233.574219 C 236.246094 228.597656 239.34375 223.457031 242.390625 218.175781 C 245.472656 212.835938 248.390625 207.484375 251.152344 202.15625 Z M 231.191406 211.726562 C 226.46875 219.925781 221.613281 227.746094 216.6875 235.132812 C 207.722656 235.769531 198.449219 236.101562 189 236.101562 C 179.585938 236.101562 170.433594 235.816406 161.621094 235.238281 C 156.496094 227.757812 151.539062 219.914062 146.84375 211.796875 C 142.160156 203.703125 137.851562 195.539062 133.945312 187.421875 C 137.847656 179.292969 142.148438 171.117188 146.804688 163.039062 C 151.472656 154.9375 156.390625 147.128906 161.46875 139.691406 C 170.457031 139.007812 179.683594 138.65625 189 138.65625 C 198.367188 138.65625 207.59375 139.011719 216.582031 139.699219 C 221.589844 147.082031 226.46875 154.867188 231.15625 162.96875 C 235.894531 171.164062 240.25 179.28125 244.183594 187.242188 C 240.261719 195.335938 235.917969 203.539062 231.191406 211.726562 Z M 257.839844 67.421875 C 267.972656 73.265625 271.90625 96.820312 265.539062 127.710938 C 265.140625 129.683594 264.679688 131.691406 264.183594 133.726562 C 251.636719 130.828125 238.019531 128.675781 223.761719 127.335938 C 215.449219 115.5 206.835938 104.742188 198.191406 95.425781 C 200.515625 93.191406 202.84375 91.058594 205.148438 89.046875 C 227.472656 69.613281 248.34375 61.9375 257.839844 67.421875 Z M 189 160.097656 C 203.90625 160.097656 216.003906 172.1875 216.003906 187.109375 C 216.003906 202.023438 203.90625 214.121094 189 214.121094 C 174.09375 214.121094 162 202.023438 162 187.109375 C 162 172.1875 174.09375 160.097656 189 160.097656 Z M 189 160.097656"/></g></svg>