<svg xmlns="http://www.w3.org/2000/svg" width="375" viewBox="0 0 375 375" height="375" version="1.0"><defs><clipPath id="a"><path d="M 80.804688 9.675781 L 294.554688 9.675781 L 294.554688 365.175781 L 80.804688 365.175781 Z M 80.804688 9.675781"/></clipPath><clipPath id="b"><path d="M 282 264 L 294.554688 264 L 294.554688 277 L 282 277 Z M 282 264"/></clipPath></defs><g clip-path="url(#a)"><path fill="#004AAD" d="M 116.4375 341.453125 L 116.4375 353.304688 L 104.5625 353.304688 L 104.5625 341.453125 Z M 270.800781 341.453125 L 270.800781 353.304688 L 258.921875 353.304688 L 258.921875 341.453125 Z M 276.738281 9.679688 L 98.625 9.679688 C 88.804688 9.679688 80.8125 17.652344 80.8125 27.453125 L 80.8125 75.140625 L 92.6875 75.140625 L 92.6875 27.453125 C 92.6875 24.183594 95.351562 21.527344 98.625 21.527344 L 276.738281 21.527344 C 280.007812 21.527344 282.671875 24.183594 282.671875 27.453125 L 282.671875 140.019531 L 92.6875 140.019531 L 92.6875 86.699219 L 80.8125 86.699219 L 80.8125 323.679688 C 80.8125 331.394531 85.792969 337.910156 92.6875 340.363281 L 92.6875 359.230469 C 92.6875 362.503906 95.347656 365.152344 98.625 365.152344 L 122.371094 365.152344 C 125.648438 365.152344 128.308594 362.503906 128.308594 359.230469 L 128.308594 341.453125 L 247.050781 341.453125 L 247.050781 359.230469 C 247.050781 362.503906 249.710938 365.152344 252.988281 365.152344 L 276.738281 365.152344 C 280.015625 365.152344 282.671875 362.503906 282.671875 359.230469 L 282.671875 340.363281 C 289.570312 337.910156 294.546875 331.394531 294.546875 323.679688 L 294.546875 288.132812 L 282.671875 288.132812 L 282.671875 323.679688 C 282.671875 326.949219 280.007812 329.605469 276.738281 329.605469 L 98.625 329.605469 C 95.351562 329.605469 92.6875 326.949219 92.6875 323.679688 L 92.6875 151.871094 L 282.671875 151.871094 L 282.671875 252.207031 L 294.546875 252.207031 L 294.546875 27.453125 C 294.546875 17.652344 286.558594 9.679688 276.738281 9.679688"/></g><g clip-path="url(#b)"><path fill="#004AAD" d="M 282.671875 276.285156 L 294.546875 276.285156 L 294.546875 264.054688 L 282.671875 264.054688 L 282.671875 276.285156"/></g><path fill="#004AAD" d="M 130.679688 58.652344 C 131.601562 57.636719 132.871094 57.074219 134.246094 57.074219 C 135.625 57.074219 136.890625 57.636719 137.816406 58.652344 C 138.734375 59.671875 139.167969 60.988281 139.03125 62.351562 L 134.867188 103.910156 C 134.804688 104.546875 133.691406 104.546875 133.625 103.910156 L 129.460938 62.351562 C 129.324219 60.988281 129.761719 59.671875 130.679688 58.652344 Z M 134.246094 116.320312 C 140.695312 116.320312 146.039062 111.492188 146.683594 105.089844 L 150.847656 63.53125 C 151.316406 58.863281 149.773438 54.1875 146.617188 50.703125 C 140.304688 43.738281 128.191406 43.738281 121.875 50.703125 C 118.71875 54.1875 117.179688 58.863281 117.648438 63.53125 L 121.8125 105.089844 C 122.453125 111.492188 127.796875 116.320312 134.246094 116.320312"/><path fill="#004AAD" d="M 139.453125 192.945312 L 134.628906 270 C 134.617188 270.203125 134.453125 270.359375 134.246094 270.359375 L 133.863281 270 L 129.039062 192.945312 C 128.953125 191.492188 129.449219 190.117188 130.445312 189.058594 C 131.441406 188 132.789062 187.414062 134.246094 187.414062 C 135.703125 187.414062 137.050781 188 138.050781 189.058594 C 139.046875 190.117188 139.542969 191.492188 139.453125 192.945312 Z M 121.789062 180.949219 C 118.574219 184.359375 116.894531 189.003906 117.191406 193.6875 L 122.011719 270.742188 C 122.414062 277.171875 127.789062 282.210938 134.246094 282.210938 C 140.703125 282.210938 146.078125 277.171875 146.480469 270.742188 L 151.304688 193.6875 C 151.597656 189.003906 149.921875 184.359375 146.707031 180.949219 C 140.269531 174.109375 128.226562 174.109375 121.789062 180.949219"/><path fill="#004AAD" d="M 247.050781 246.660156 L 211.429688 246.660156 L 211.429688 211.113281 L 223.304688 211.113281 L 223.304688 228.890625 C 223.304688 232.164062 225.960938 234.8125 229.238281 234.8125 C 232.515625 234.8125 235.175781 232.164062 235.175781 228.890625 L 235.175781 211.113281 L 247.050781 211.113281 Z M 211.429688 187.414062 L 247.050781 187.414062 L 247.050781 199.265625 L 211.429688 199.265625 Z M 258.921875 205.1875 L 258.921875 181.488281 C 258.921875 178.214844 256.265625 175.566406 252.988281 175.566406 L 205.492188 175.566406 C 202.210938 175.566406 199.554688 178.214844 199.554688 181.488281 L 199.554688 252.585938 C 199.554688 255.859375 202.210938 258.507812 205.492188 258.507812 L 252.988281 258.507812 C 256.265625 258.507812 258.921875 255.859375 258.921875 252.585938 L 258.921875 205.1875"/><path fill="#004AAD" d="M 199.554688 282.210938 L 258.921875 282.210938 L 258.921875 270.359375 L 199.554688 270.359375 L 199.554688 282.210938"/></svg>